<svg width="272" height="220" viewBox="0 0 272 220" fill="none" xmlns="http://www.w3.org/2000/svg">
<path d="M93.8184 101.515C93.0184 101.515 92.0669 101.407 90.9425 101.212C88.0882 100.693 84.4987 99.5473 80.8227 98.012C75.525 95.7848 66.8972 91.2438 68.1081 88.3463C68.9514 86.3353 73.6221 87.2219 77.3846 88.3247C77.7954 88.4328 78.0117 88.8653 77.9035 89.2545C77.7954 89.6653 77.363 89.8816 76.9737 89.7734C71.9355 88.3247 69.7515 88.5842 69.5136 88.9301C69.5136 88.9301 69.492 89.8167 72.5193 91.9142C74.7898 93.4927 77.9468 95.1577 81.4066 96.6065C84.8879 98.0553 88.2828 99.1581 90.9858 99.677C94.5969 100.369 95.2024 99.7419 95.224 99.7203C95.3105 99.3094 93.9698 97.5579 89.4073 94.9847C89.0397 94.7901 88.9099 94.3144 89.1261 93.9468C89.3208 93.5792 89.7965 93.4494 90.1641 93.6657C93.5806 95.5902 97.4728 98.2931 96.6295 100.304C96.2835 101.126 95.3537 101.515 93.8184 101.515Z" fill="#E6E6E7"/>
<path d="M89.2151 97.2009C90.802 93.4246 89.0271 89.0769 85.2508 87.49C81.4745 85.9031 77.1268 87.678 75.5399 91.4543C73.953 95.2306 75.7279 99.5784 79.5042 101.165C83.2805 102.752 87.6282 100.977 89.2151 97.2009Z" fill="#E6E6E7"/>
<path d="M91.3774 95.0386C92.9642 91.2623 91.1894 86.9146 87.4131 85.3277C83.6367 83.7408 79.289 85.5157 77.7022 89.292C76.1153 93.0683 77.8902 97.4161 81.6665 99.0029C85.4428 100.59 89.7905 98.8149 91.3774 95.0386Z" fill="white"/>
<path d="M84.5203 100.347C83.4608 100.347 82.4012 100.153 81.3633 99.6986C79.3523 98.8553 77.7954 97.2768 76.9737 95.2442C76.152 93.2332 76.152 91.006 76.9953 88.995C78.7468 84.8433 83.5472 82.8971 87.699 84.6486C89.7099 85.492 91.2668 87.0705 92.0885 89.1031C92.9102 91.1357 92.9102 93.3413 92.0669 95.3523C90.7479 98.4661 87.7206 100.347 84.5203 100.347ZM84.5419 85.5136C81.9471 85.5136 79.4604 87.0489 78.4009 89.6004C77.7089 91.2438 77.7089 93.0386 78.3792 94.7036C79.0496 96.3253 80.3253 97.6228 81.9471 98.3147C85.3204 99.7419 89.2342 98.1417 90.6614 94.7468C91.3533 93.1034 91.3533 91.3087 90.683 89.6437C90.0127 88.0003 88.7369 86.7029 87.0935 86.0326C86.2718 85.6866 85.4069 85.5136 84.5419 85.5136Z" fill="#8898A7"/>
<path d="M88.5856 94.6171C88.4775 94.6171 88.391 94.5955 88.2828 94.5522C87.8936 94.4009 87.7206 93.9468 87.872 93.5576C88.6504 91.7196 87.7855 89.5788 85.9259 88.8004C84.0879 88.0219 81.9472 88.8869 81.1687 90.7465C81.0173 91.1357 80.5632 91.3087 80.174 91.1574C79.7848 91.006 79.6118 90.5519 79.7632 90.1627C80.866 87.5462 83.8933 86.3137 86.4881 87.4165C89.1045 88.5193 90.3371 91.5466 89.2343 94.1414C89.1478 94.4441 88.8667 94.6171 88.5856 94.6171Z" fill="#D0D1D3"/>
<path d="M95.916 99.3527C92.4346 99.3527 86.726 97.4066 83.0068 95.8281C79.3308 94.2928 76.0008 92.5197 73.6438 90.8547C70.876 88.9085 69.7948 87.3733 70.2922 86.1624C71.1138 84.173 75.7845 85.0596 79.547 86.1624C79.9579 86.2705 80.1741 86.7029 80.066 87.0922C79.9579 87.503 79.5254 87.7192 79.1362 87.6111C74.0979 86.1624 71.9139 86.4218 71.6761 86.7678C71.6761 86.7678 71.6544 87.6544 74.6817 89.7519C76.9522 91.3304 80.1092 92.9954 83.569 94.4442C87.0504 95.8929 90.4453 96.9957 93.1482 97.5147C96.7593 98.2066 97.3648 97.5796 97.3864 97.5579C97.4729 97.1471 96.1322 95.3956 91.5697 92.8224C91.2021 92.6278 91.0723 92.1521 91.2886 91.7845C91.4832 91.4169 91.9589 91.2871 92.3265 91.5034C95.743 93.4278 99.6353 96.1308 98.7919 98.1418C98.4243 99.0283 97.3648 99.3527 95.916 99.3527Z" fill="#8898A7"/>
<path d="M226.978 82.7C230.832 82.7 233.956 79.5757 233.956 75.7218C233.956 71.8678 230.832 68.7435 226.978 68.7435C223.124 68.7435 220 71.8678 220 75.7218C220 79.5757 223.124 82.7 226.978 82.7Z" fill="#E6E6E7"/>
<path d="M228.492 81.1863C232.346 81.1863 235.47 78.062 235.47 74.208C235.47 70.3541 232.346 67.2298 228.492 67.2298C224.638 67.2298 221.514 70.3541 221.514 74.208C221.514 78.062 224.638 81.1863 228.492 81.1863Z" fill="white"/>
<path d="M228.492 81.701C224.359 81.701 220.984 78.3405 220.984 74.1929C220.984 70.0453 224.344 66.7 228.492 66.7C232.624 66.7 236 70.0605 236 74.2081C236 78.3556 232.624 81.701 228.492 81.701ZM228.492 67.7596C224.935 67.7596 222.043 70.6508 222.043 74.2081C222.043 77.7653 224.935 80.6565 228.492 80.6565C232.049 80.6565 234.925 77.7502 234.925 74.2081C234.925 70.666 232.034 67.7596 228.492 67.7596Z" fill="#6C7B8B"/>
<path d="M221.938 76.5543C221.65 76.5543 221.408 76.3121 221.408 76.0245C221.408 75.7369 221.65 75.4947 221.938 75.4947C226.237 75.4947 229.733 71.998 229.733 67.6991C229.733 67.4114 229.975 67.1693 230.263 67.1693C230.551 67.1693 230.793 67.4114 230.793 67.6991C230.808 72.5732 226.827 76.5543 221.938 76.5543Z" fill="#6C7B8B"/>
<path d="M221.847 73.7237C221.559 73.7237 221.317 73.4815 221.317 73.1939C221.317 72.9063 221.559 72.6641 221.847 72.6641C224.829 72.6641 227.251 70.2421 227.251 67.2601C227.251 66.9725 227.493 66.7303 227.78 66.7303C228.068 66.7303 228.31 66.9725 228.31 67.2601C228.295 70.8325 225.404 73.7237 221.847 73.7237Z" fill="#6C7B8B"/>
<path d="M223.012 78.9914C222.725 78.9914 222.483 78.7492 222.483 78.4616C222.483 78.174 222.725 77.9318 223.012 77.9318C228.114 77.9318 232.261 73.7842 232.261 68.6829C232.261 68.3953 232.503 68.1531 232.791 68.1531C233.079 68.1531 233.321 68.3953 233.321 68.6829C233.306 74.3594 228.689 78.9914 223.012 78.9914Z" fill="#6C7B8B"/>
<path d="M225.162 80.8836C224.874 80.8836 224.632 80.6414 224.632 80.3538C224.632 80.0661 224.874 79.824 225.162 79.824C230.036 79.824 234.002 75.858 234.002 70.9838C234.002 70.6962 234.244 70.454 234.532 70.454C234.819 70.454 235.061 70.6962 235.061 70.9838C235.061 76.4484 230.611 80.8836 225.162 80.8836Z" fill="#6C7B8B"/>
<g clip-path="url(#clip0)">
<path d="M39.1265 218.005C39.2827 218.206 39.5057 218.295 39.7288 218.295C39.9073 218.295 40.0634 218.25 40.2642 218.139C41.1565 217.403 41.7141 216.354 42.2495 215.328C42.7626 214.369 43.231 213.454 43.9448 212.919C44.624 212.393 45.6044 212.169 46.6536 211.928L46.7109 211.915C47.8262 211.67 48.9862 211.402 49.9454 210.733C50.87 210.072 51.5122 209.086 52.1293 208.138L52.1538 208.101L52.1604 208.09C52.7602 207.157 53.3165 206.292 54.0499 205.825C54.8083 205.335 55.8345 205.201 56.9052 205.045C58.0429 204.888 59.2251 204.71 60.2289 204.13C61.2328 203.528 61.9689 202.591 62.6604 201.676C63.3296 200.806 63.9542 200.003 64.735 199.579C65.5157 199.178 66.5418 199.111 67.6349 199.044L67.6447 199.043C68.8015 198.977 69.9801 198.909 71.0255 198.397C72.074 197.906 72.8547 197.014 73.6354 196.166C74.3493 195.341 75.0631 194.583 75.8661 194.226C76.6661 193.892 77.6874 193.913 78.7757 193.935L78.7884 193.936C79.9483 193.958 81.1306 194.003 82.2236 193.579C83.3167 193.177 84.1643 192.352 85.012 191.571C85.8151 190.813 86.5512 190.121 87.3989 189.831C88.2097 189.546 89.2143 189.649 90.2857 189.758L90.3434 189.764C91.5034 189.876 92.6856 190.01 93.801 189.675C94.9163 189.34 95.8532 188.604 96.7455 187.89C97.5932 187.199 98.3962 186.574 99.2662 186.351C100.01 186.161 101.844 186.77 102.181 186.657C102.282 186.624 102.19 186.48 102.15 186.382L101.745 185.405C101.586 185.019 101.309 184.67 100.896 184.613C100.388 184.542 99.7116 184.615 98.9093 184.812C97.7354 185.1 96.7595 185.872 95.8068 186.625L95.7863 186.641C94.9609 187.288 94.1802 187.89 93.3771 188.136C92.5687 188.376 91.6105 188.274 90.5863 188.165L90.5218 188.158C89.3173 188.024 88.0681 187.913 86.9081 188.292C85.7481 188.671 84.8336 189.541 83.9413 190.367C83.1828 191.08 82.4467 191.75 81.666 192.062C80.8664 192.373 79.8898 192.352 78.8465 192.33L78.833 192.33C77.6061 192.307 76.3569 192.263 75.2415 192.753C74.1039 193.244 73.2562 194.181 72.4532 195.073C71.7617 195.854 71.0924 196.59 70.334 196.947C69.5533 197.326 68.5718 197.371 67.5233 197.438L67.5148 197.438C66.2907 197.505 65.0448 197.573 63.9765 198.152C62.9029 198.721 62.1521 199.7 61.4281 200.644L61.3889 200.695C60.7643 201.542 60.162 202.323 59.4259 202.747C58.6898 203.171 57.7306 203.305 56.6821 203.461C55.4776 203.639 54.2284 203.795 53.2022 204.465C52.1761 205.134 51.4846 206.182 50.8377 207.208L50.8325 207.216C50.2545 208.106 49.7203 208.927 49.0308 209.417C48.3393 209.907 47.3801 210.131 46.354 210.354C45.1717 210.621 43.9671 210.911 42.9856 211.647C42.0041 212.384 41.4241 213.499 40.8442 214.57C40.3534 215.507 39.885 216.377 39.2381 216.912C38.9034 217.18 38.8588 217.67 39.1265 218.005Z" fill="#A0D1F1"/>
<path d="M11.3766 218.295C11.1536 218.295 10.9305 218.206 10.7743 218.005C10.5067 217.67 10.5513 217.18 10.8859 216.912C11.5774 216.332 12.0905 215.417 12.6035 214.458C13.2058 213.365 13.8304 212.227 14.8342 211.469C15.838 210.688 17.0872 210.376 18.2918 210.064C19.3625 209.796 20.3664 209.528 21.1025 208.993C21.8386 208.458 22.3963 207.588 22.9763 206.651C23.6455 205.602 24.337 204.509 25.3854 203.795C26.4339 203.082 27.7054 202.858 28.9322 202.635C30.003 202.435 31.0291 202.234 31.8098 201.765C32.5683 201.275 33.1929 200.449 33.8398 199.557C34.5759 198.553 35.3567 197.505 36.4274 196.88C37.5204 196.256 38.7919 196.099 40.0411 195.943C41.1342 195.809 42.1603 195.698 42.9633 195.252C43.3203 195.051 43.6772 194.783 44.0787 194.382C44.391 194.07 44.8817 194.07 45.1717 194.382C45.484 194.694 45.484 195.185 45.1717 195.475C44.6587 195.988 44.1902 196.345 43.6995 196.613C42.6287 197.192 41.4019 197.326 40.2196 197.482C39.0819 197.616 38.0112 197.75 37.2081 198.219C36.4051 198.687 35.7582 199.557 35.089 200.472C34.3751 201.431 33.639 202.435 32.6352 203.082C31.6091 203.728 30.4045 203.952 29.2222 204.175C28.1069 204.375 27.0361 204.576 26.2777 205.111C25.497 205.625 24.917 206.539 24.3147 207.498C23.6678 208.502 22.9986 209.551 22.0394 210.264C21.0579 210.978 19.8533 211.268 18.6933 211.581C17.6003 211.87 16.5519 212.138 15.8157 212.696C15.0796 213.276 14.5665 214.213 14.0089 215.217C13.4289 216.265 12.8266 217.358 11.912 218.116C11.7112 218.25 11.5551 218.295 11.3766 218.295Z" fill="#A0D1F1"/>
<path d="M79.2122 181.087C79.3461 181.355 79.6138 181.488 79.8815 181.488C80.0153 181.488 80.1491 181.444 80.2384 181.355C80.9076 180.975 81.5322 180.462 82.1345 179.994C83.0267 179.28 83.8744 178.611 84.789 178.365C85.4936 178.194 86.291 178.247 87.13 178.352C87.5524 178.405 87.9433 178.118 88.0104 177.698C88.0789 177.267 87.7828 176.861 87.3508 176.805C86.3661 176.676 85.3601 176.607 84.4098 176.871C83.1915 177.203 82.1932 177.997 81.2182 178.773L81.1976 178.789C80.6176 179.258 80.0599 179.704 79.5022 180.016C79.123 180.239 78.9892 180.708 79.2122 181.087Z" fill="#A0D1F1"/>
<path d="M268.574 222.645C268.396 222.645 268.217 222.578 268.084 222.466C267.147 221.708 266.567 220.615 265.987 219.566C265.429 218.562 264.916 217.625 264.18 217.046C263.444 216.466 262.395 216.198 261.302 215.93C260.142 215.64 258.938 215.328 257.956 214.614C256.975 213.9 256.306 212.874 255.681 211.848C255.056 210.889 254.499 209.974 253.718 209.461C252.937 208.948 251.889 208.747 250.773 208.524C249.591 208.301 248.387 208.078 247.36 207.431C247.004 207.208 246.892 206.717 247.115 206.36C247.338 206.004 247.829 205.892 248.186 206.115C248.944 206.606 249.97 206.784 251.063 206.985C252.29 207.208 253.562 207.453 254.61 208.145C255.659 208.859 256.35 209.93 257.019 211C257.622 211.915 258.179 212.807 258.893 213.343C259.629 213.878 260.633 214.123 261.704 214.413C262.908 214.726 264.158 215.038 265.161 215.819C266.165 216.599 266.79 217.715 267.392 218.808C267.928 219.767 268.418 220.682 269.11 221.262C269.444 221.529 269.489 222.02 269.221 222.355C269.021 222.555 268.797 222.645 268.574 222.645Z" fill="#A0D1F1"/>
<path d="M24.4932 218.295C24.2701 218.295 24.0471 218.206 23.8909 218.005C23.6232 217.67 23.6679 217.18 24.0025 216.912C24.694 216.332 25.1847 215.44 25.6978 214.48C26.3001 213.387 26.9024 212.272 27.9062 211.491C28.8877 210.733 30.1369 210.421 31.3415 210.131C32.3899 209.863 33.3937 209.618 34.1298 209.104C34.866 208.591 35.4013 207.721 36.0036 206.807C36.6728 205.758 37.3643 204.688 38.4128 203.996C39.4612 203.305 40.7327 203.082 41.9373 202.881C43.008 202.702 44.0118 202.524 44.7926 202.055C45.551 201.587 46.1756 200.784 46.8225 199.914C47.581 198.932 48.3394 197.906 49.4324 197.282C49.8117 197.059 50.2578 196.903 50.7485 196.769C51.1724 196.657 51.5962 196.903 51.7078 197.326C51.8193 197.75 51.5739 198.174 51.1501 198.286C50.7709 198.375 50.4809 198.509 50.2132 198.642C49.4101 199.089 48.7632 199.936 48.0717 200.851C47.3579 201.788 46.6218 202.769 45.5956 203.394C44.5695 204.018 43.3649 204.219 42.205 204.42C41.0896 204.598 40.0412 204.777 39.2604 205.29C38.4797 205.803 37.8997 206.695 37.2974 207.655C36.6505 208.658 35.9813 209.684 35.0221 210.376C34.0406 211.067 32.8583 211.357 31.6984 211.647C30.6053 211.915 29.5569 212.161 28.8431 212.74C28.1069 213.298 27.5939 214.235 27.0585 215.239C26.5008 216.287 25.8986 217.358 24.984 218.116C24.8501 218.25 24.6717 218.295 24.4932 218.295Z" fill="#A0D1F1"/>
<path d="M78.5724 189C78.5438 189 78.5152 189 78.5009 189C78.229 189 78 188.675 78 188.29C78 187.904 78.229 187.579 78.5009 187.579C79.0017 187.579 79.3595 187.519 79.66 187.377C80.2037 187.113 80.7046 186.504 81.2341 185.875C81.8351 185.144 82.4647 184.373 83.2375 184.048C84.0102 183.724 84.8259 183.866 85.613 184.008C86.2998 184.13 86.9581 184.251 87.5162 184.048C88.0743 183.845 88.6038 183.298 89.1618 182.709C89.8058 182.039 90.4641 181.349 91.2654 181.106C92.0525 180.862 92.8538 181.086 93.6266 181.309C94.3135 181.512 94.9574 181.694 95.5298 181.532C95.7588 181.471 96.0021 181.349 96.2739 181.167C96.5172 180.984 96.8177 181.146 96.9465 181.491C97.0753 181.836 96.9608 182.263 96.7176 182.445C96.3598 182.689 96.0307 182.851 95.7015 182.932C94.9431 183.135 94.1704 182.912 93.4262 182.689C92.7107 182.486 92.0525 182.303 91.4658 182.486C90.8791 182.668 90.3353 183.237 89.7486 183.845C89.1332 184.475 88.5036 185.144 87.7595 185.408C87.0153 185.672 86.2426 185.55 85.4842 185.408C84.7687 185.286 84.0818 185.165 83.5237 185.408C82.9513 185.652 82.4361 186.281 81.878 186.95C81.3056 187.64 80.7046 188.371 79.9748 188.716C79.6027 188.919 79.1591 189 78.5724 189Z" fill="#A0D1F1"/>
<path d="M260.156 223C259.967 223 259.778 222.947 259.637 222.858C258.67 222.254 258.033 221.402 257.444 220.568C256.877 219.786 256.335 219.041 255.557 218.579C254.778 218.135 253.694 217.922 252.538 217.709C251.311 217.478 250.061 217.247 249.024 216.697C248.01 216.146 247.302 215.33 246.618 214.531C246.453 214.353 246.311 214.158 246.146 213.98C245.887 213.696 245.981 213.306 246.359 213.11C246.736 212.915 247.255 212.986 247.514 213.27C247.679 213.448 247.844 213.643 248.01 213.838C248.623 214.566 249.212 215.241 249.991 215.667C250.769 216.075 251.807 216.271 252.939 216.484C254.212 216.715 255.533 216.963 256.571 217.567C257.632 218.171 258.269 219.076 258.906 219.946C259.448 220.71 259.967 221.42 260.698 221.881C261.052 222.094 261.099 222.485 260.816 222.751C260.627 222.929 260.392 223 260.156 223Z" fill="#A0D1F1"/>
<path d="M246.05 224.734C245.872 224.734 245.693 224.667 245.56 224.556C244.667 223.82 244.11 222.771 243.574 221.745C243.061 220.786 242.57 219.871 241.879 219.336C241.187 218.801 240.161 218.578 239.113 218.332C237.998 218.087 236.815 217.819 235.878 217.15C235.12 216.615 234.562 215.878 234.138 215.231C233.893 214.875 233.982 214.384 234.339 214.138C234.696 213.893 235.187 213.982 235.432 214.339C235.789 214.875 236.235 215.477 236.771 215.856C237.462 216.347 238.444 216.57 239.448 216.793C240.63 217.061 241.857 217.328 242.816 218.087C243.797 218.823 244.377 219.938 244.957 221.009C245.448 221.924 245.917 222.816 246.563 223.351C246.898 223.619 246.943 224.11 246.675 224.444C246.497 224.645 246.273 224.734 246.05 224.734Z" fill="#A0D1F1"/>
<path d="M55.8567 218.295C55.6337 218.295 55.4106 218.206 55.2544 218.005C54.9868 217.67 55.0314 217.18 55.366 216.912C55.9683 216.421 56.3921 215.573 56.8382 214.703C57.3736 213.655 57.909 212.584 58.8459 211.87C59.7828 211.157 60.965 210.934 62.1027 210.711C63.0842 210.532 63.9988 210.354 64.6457 209.907C65.2926 209.461 65.7833 208.681 66.3187 207.833C66.9433 206.851 67.5902 205.825 68.594 205.201C69.5978 204.576 70.8024 204.465 71.9624 204.353C72.9439 204.264 73.8808 204.152 74.5723 203.773C75.2638 203.394 75.8215 202.658 76.4238 201.877C77.1376 200.962 77.8737 200.003 78.9222 199.468C79.9706 198.955 81.1752 198.932 82.3351 198.932C83.3167 198.932 84.2535 198.91 84.9897 198.598C85.7035 198.286 86.3504 197.594 87.0196 196.88C87.8227 196.033 88.6257 195.14 89.7411 194.716C90.8341 194.293 92.0387 194.404 93.1987 194.493C94.1802 194.583 95.1171 194.649 95.8755 194.404C96.6116 194.159 97.3031 193.534 98.0393 192.887C98.9092 192.106 99.8015 191.303 100.939 190.991C102.077 190.679 103.259 190.88 104.397 191.08C105.378 191.259 106.293 191.415 107.074 191.237C107.832 191.058 108.59 190.5 109.371 189.92C110.308 189.229 111.29 188.515 112.45 188.292C113.61 188.069 114.77 188.404 115.885 188.716C116.844 188.984 117.736 189.229 118.539 189.117C119.32 189.006 120.101 188.537 120.949 188.024C121.952 187.422 122.979 186.797 124.161 186.686C124.585 186.641 124.964 186.954 125.008 187.4C125.053 187.846 124.741 188.203 124.295 188.247C123.469 188.314 122.644 188.827 121.752 189.363C120.815 189.943 119.833 190.523 118.74 190.679C117.647 190.835 116.532 190.523 115.461 190.233C114.457 189.965 113.52 189.697 112.74 189.853C111.937 190.01 111.133 190.59 110.308 191.214C109.416 191.861 108.501 192.553 107.431 192.798C106.337 193.043 105.222 192.843 104.129 192.664C103.103 192.486 102.144 192.307 101.363 192.53C100.582 192.753 99.8461 193.4 99.0654 194.092C98.24 194.828 97.3924 195.586 96.3439 195.943C95.2955 196.3 94.1579 196.189 93.0425 196.099C92.0164 196.01 91.0349 195.921 90.2764 196.211C89.518 196.501 88.8488 197.215 88.135 197.973C87.3765 198.776 86.6181 199.624 85.592 200.07C84.5658 200.516 83.4282 200.516 82.3351 200.539C81.309 200.539 80.3275 200.561 79.5914 200.918C78.8553 201.275 78.253 202.055 77.6284 202.881C76.9592 203.751 76.2676 204.665 75.2861 205.201C74.3269 205.736 73.1893 205.848 72.0739 205.959C71.0478 206.071 70.0663 206.16 69.3748 206.584C68.6833 207.008 68.1479 207.833 67.6125 208.725C67.0325 209.662 66.4079 210.621 65.4934 211.246C64.5788 211.87 63.4634 212.094 62.3704 212.294C61.3443 212.495 60.4074 212.674 59.7382 213.164C59.0912 213.655 58.6451 214.525 58.1767 215.44C57.6859 216.421 57.1505 217.447 56.3029 218.139C56.2136 218.25 56.0352 218.295 55.8567 218.295Z" fill="#A0D1F1"/>
<path d="M199.268 218.295C199.09 218.295 198.912 218.228 198.778 218.116C197.975 217.447 197.529 216.488 197.082 215.551C196.681 214.704 196.302 213.878 195.722 213.454C195.142 213.03 194.272 212.897 193.335 212.763C192.309 212.607 191.238 212.45 190.39 211.871C189.52 211.291 188.963 210.376 188.427 209.506C187.937 208.703 187.468 207.922 186.843 207.565C186.219 207.208 185.327 207.164 184.39 207.119C183.341 207.075 182.271 207.03 181.356 206.561C180.441 206.093 179.794 205.223 179.148 204.42C178.568 203.662 178.032 202.948 177.363 202.658C176.716 202.368 175.824 202.412 174.887 202.479C173.861 202.546 172.79 202.613 171.809 202.234C170.849 201.855 170.113 201.074 169.399 200.338C168.752 199.646 168.128 198.999 167.436 198.776C166.767 198.553 165.875 198.709 164.938 198.866C163.912 199.044 162.863 199.222 161.86 198.955C160.856 198.687 160.053 197.996 159.25 197.326C158.536 196.702 157.844 196.122 157.131 195.988C156.439 195.832 155.569 196.077 154.677 196.345C153.673 196.635 152.647 196.925 151.621 196.769C150.595 196.613 149.725 196.01 148.855 195.43C148.074 194.895 147.315 194.382 146.602 194.315C145.91 194.248 145.062 194.583 144.192 194.94C143.233 195.341 142.229 195.743 141.181 195.676C140.155 195.631 139.218 195.118 138.303 194.627C137.456 194.181 136.675 193.757 135.939 193.757C135.203 193.757 134.422 194.181 133.574 194.627C132.66 195.118 131.723 195.631 130.697 195.676C129.648 195.72 128.644 195.319 127.685 194.94C126.815 194.583 125.99 194.248 125.276 194.315C124.562 194.382 123.804 194.895 123.023 195.43C122.175 196.01 121.283 196.613 120.257 196.769C119.231 196.925 118.183 196.635 117.201 196.345C116.286 196.077 115.439 195.832 114.747 195.988C114.033 196.144 113.364 196.724 112.628 197.326C111.847 197.996 111.022 198.687 110.018 198.955C109.014 199.222 107.944 199.044 106.94 198.866C106.003 198.709 105.133 198.553 104.441 198.776C103.75 198.999 103.148 199.646 102.478 200.338C101.765 201.096 101.028 201.855 100.069 202.234C99.11 202.613 98.017 202.546 96.9909 202.479C96.054 202.412 95.1617 202.368 94.5148 202.658C93.8679 202.948 93.3102 203.662 92.7302 204.42C92.1056 205.245 91.4587 206.093 90.5218 206.561C89.6072 207.052 88.5365 207.075 87.4881 207.119C86.5512 207.164 85.6366 207.186 85.0343 207.565C84.4097 207.922 83.9413 208.703 83.4505 209.506C82.9151 210.398 82.3575 211.313 81.4875 211.871C80.6175 212.45 79.5691 212.607 78.543 212.763C77.6061 212.897 76.7138 213.03 76.1561 213.454C75.5761 213.878 75.1969 214.681 74.7954 215.551C74.3492 216.488 73.9031 217.47 73.1001 218.116C72.7655 218.384 72.2747 218.34 72.007 218.005C71.7393 217.67 71.7839 217.18 72.1185 216.912C72.6539 216.466 73.0108 215.707 73.39 214.882C73.8585 213.878 74.3492 212.852 75.2415 212.205C76.1338 211.536 77.2492 211.38 78.3422 211.224C79.2345 211.09 80.0821 210.956 80.6621 210.577C81.2421 210.197 81.6882 209.461 82.1567 208.703C82.7367 207.766 83.3167 206.785 84.2759 206.227C85.2351 205.669 86.3727 205.625 87.4658 205.58C88.3804 205.535 89.228 205.513 89.8526 205.201C90.4549 204.888 90.9903 204.197 91.5256 203.483C92.1948 202.613 92.8864 201.699 93.8902 201.252C94.894 200.806 96.0317 200.873 97.1247 200.94C98.0393 201.007 98.887 201.052 99.5339 200.806C100.181 200.561 100.761 199.936 101.385 199.289C102.144 198.486 102.925 197.661 103.995 197.326C105.044 196.969 106.159 197.17 107.252 197.371C108.144 197.527 108.992 197.683 109.661 197.505C110.33 197.326 110.977 196.769 111.669 196.189C112.517 195.475 113.386 194.739 114.457 194.493C115.528 194.27 116.621 194.583 117.669 194.873C118.539 195.118 119.365 195.363 120.056 195.252C120.726 195.14 121.439 194.672 122.175 194.159C123.09 193.534 124.027 192.887 125.142 192.776C126.235 192.664 127.284 193.088 128.31 193.512C129.158 193.846 129.938 194.181 130.652 194.136C131.344 194.092 132.08 193.69 132.883 193.266C133.864 192.753 134.868 192.196 135.983 192.196C137.099 192.196 138.103 192.731 139.084 193.266C139.887 193.69 140.623 194.092 141.315 194.136C142.006 194.181 142.809 193.846 143.657 193.512C144.661 193.088 145.732 192.664 146.825 192.776C147.94 192.887 148.877 193.534 149.792 194.159C150.528 194.672 151.241 195.14 151.911 195.252C152.602 195.363 153.428 195.118 154.298 194.873C155.346 194.56 156.439 194.248 157.51 194.493C158.603 194.716 159.473 195.475 160.298 196.189C160.99 196.769 161.637 197.326 162.306 197.505C162.975 197.683 163.823 197.549 164.715 197.371C165.786 197.17 166.923 196.992 167.972 197.326C169.02 197.683 169.801 198.509 170.582 199.289C171.206 199.936 171.786 200.561 172.433 200.806C173.08 201.052 173.928 201.007 174.842 200.94C175.935 200.873 177.073 200.784 178.077 201.252C179.081 201.721 179.772 202.613 180.441 203.483C180.999 204.197 181.512 204.888 182.114 205.201C182.739 205.513 183.587 205.558 184.501 205.58C185.594 205.625 186.732 205.669 187.691 206.227C188.65 206.785 189.23 207.766 189.81 208.703C190.279 209.484 190.725 210.197 191.305 210.577C191.885 210.956 192.732 211.09 193.625 211.224C194.718 211.38 195.833 211.558 196.725 212.205C197.618 212.874 198.108 213.9 198.577 214.882C198.956 215.707 199.335 216.466 199.848 216.912C200.183 217.18 200.228 217.67 199.96 218.005C199.715 218.206 199.492 218.295 199.268 218.295Z" fill="#A0D1F1"/>
<path d="M106.36 208.458C106.159 208.458 105.958 208.391 105.802 208.234C105.49 207.922 105.49 207.431 105.802 207.141C106.271 206.673 106.739 206.338 107.207 206.115C108.3 205.625 109.505 205.669 110.687 205.714C111.647 205.758 112.561 205.803 113.297 205.535C114.011 205.268 114.68 204.665 115.394 204.018C116.286 203.215 117.179 202.39 118.361 202.078C119.521 201.765 120.703 202.033 121.863 202.301L122.086 202.345C122.51 202.435 122.778 202.858 122.688 203.282C122.599 203.706 122.175 203.974 121.752 203.885L121.529 203.84C120.502 203.617 119.543 203.394 118.762 203.617C117.959 203.818 117.223 204.487 116.443 205.201C115.662 205.915 114.836 206.651 113.833 207.03C112.829 207.387 111.713 207.342 110.643 207.298C109.594 207.253 108.613 207.208 107.877 207.543C107.564 207.677 107.252 207.922 106.917 208.257C106.761 208.368 106.561 208.458 106.36 208.458Z" fill="#A0D1F1"/>
<path d="M178.055 218.295C177.876 218.295 177.698 218.228 177.564 218.116C176.738 217.425 176.225 216.443 175.712 215.507C175.222 214.592 174.753 213.7 174.084 213.231C173.415 212.763 172.433 212.629 171.407 212.495C170.336 212.361 169.243 212.205 168.306 211.692C167.369 211.157 166.7 210.287 166.053 209.439C165.406 208.614 164.804 207.833 164.046 207.476C163.31 207.141 162.328 207.186 161.28 207.231C160.209 207.275 159.094 207.32 158.09 206.963C157.086 206.606 156.261 205.87 155.48 205.134C154.699 204.42 153.963 203.773 153.16 203.55C152.379 203.349 151.42 203.55 150.394 203.773C149.345 203.996 148.252 204.241 147.182 204.063C146.133 203.885 145.196 203.305 144.304 202.725C143.412 202.167 142.564 201.632 141.739 201.565C141.315 201.52 140.824 201.609 140.177 201.832C139.776 201.966 139.33 201.765 139.196 201.342C139.062 200.94 139.263 200.494 139.687 200.36C140.534 200.07 141.226 199.959 141.873 200.025C143.077 200.137 144.126 200.784 145.129 201.431C145.932 201.944 146.691 202.412 147.449 202.546C148.208 202.68 149.1 202.479 150.037 202.278C151.197 202.011 152.379 201.765 153.539 202.055C154.699 202.368 155.614 203.193 156.506 203.996C157.22 204.643 157.889 205.245 158.603 205.513C159.317 205.781 160.231 205.736 161.213 205.691C162.395 205.647 163.622 205.58 164.693 206.093C165.786 206.606 166.544 207.565 167.28 208.502C167.86 209.261 168.418 209.974 169.087 210.354C169.756 210.733 170.649 210.844 171.608 210.978C172.79 211.134 173.995 211.291 174.976 211.96C175.958 212.651 176.538 213.722 177.095 214.77C177.541 215.618 177.965 216.421 178.568 216.912C178.902 217.18 178.947 217.67 178.679 218.005C178.501 218.206 178.278 218.295 178.055 218.295Z" fill="#A0D1F1"/>
<path d="M158 218.295C157.822 218.295 157.644 218.228 157.51 218.116C156.707 217.447 156.127 216.533 155.591 215.64C154.989 214.659 154.409 213.722 153.606 213.254C152.803 212.807 151.71 212.785 150.572 212.763C149.524 212.74 148.431 212.718 147.427 212.361C146.445 212.004 145.62 211.335 144.795 210.688C143.88 209.952 143.01 209.261 142.096 209.104C141.672 209.038 141.382 208.636 141.449 208.212C141.516 207.788 141.917 207.498 142.341 207.565C143.657 207.788 144.728 208.636 145.754 209.461C146.512 210.064 147.204 210.621 147.94 210.889C148.698 211.157 149.613 211.179 150.595 211.201C151.888 211.224 153.249 211.246 154.387 211.915C155.547 212.584 156.238 213.722 156.93 214.837C157.443 215.663 157.911 216.443 158.514 216.934C158.848 217.202 158.893 217.693 158.625 218.027C158.447 218.206 158.246 218.295 158 218.295Z" fill="#A0D1F1"/>
<path d="M55.7899 198.576C50.0123 198.576 43.811 196.858 40.0188 192.017C39.7511 191.683 39.818 191.192 40.1527 190.924C40.4873 190.657 40.978 190.723 41.2457 191.058C45.7963 196.902 54.3399 197.728 60.7866 196.568C64.735 195.854 70.3117 194.136 74.3493 189.987C78.0746 186.173 79.6807 180.775 78.4538 176.246C78.3422 175.822 78.5876 175.399 79.0115 175.287C79.4353 175.175 79.8591 175.421 79.9706 175.845C81.3537 180.886 79.5914 186.864 75.4869 191.08C72.0517 194.605 67.0772 197.036 61.0766 198.107C59.4259 198.419 57.619 198.576 55.7899 198.576Z" fill="#43454E"/>
<path d="M136.519 219.812C136.318 219.812 136.117 219.745 135.961 219.589C135.649 219.276 135.649 218.786 135.961 218.496C138.08 216.377 139.753 213.767 140.779 210.956C141.426 209.171 142.274 205.803 140.601 203.327C138.861 200.739 135.247 200.315 133.24 200.293C129.581 200.249 126.235 201.141 123.603 202.858C122.577 203.528 121.595 204.375 120.636 205.178C118.896 206.651 117.112 208.19 114.859 208.904C111.758 209.908 108.568 209.171 105.49 208.458C104.754 208.279 103.973 208.101 103.237 207.967C98.1954 206.985 93.221 207.32 88.8265 208.948C84.0974 210.711 80.1937 213.923 77.8738 218.005C77.6507 218.384 77.1822 218.518 76.803 218.295C76.4238 218.072 76.29 217.603 76.513 217.224C79.0337 212.83 83.2051 209.35 88.2911 207.476C92.9533 205.758 98.2177 205.379 103.549 206.428C104.308 206.584 105.111 206.762 105.869 206.941C108.88 207.632 111.736 208.279 114.413 207.431C116.376 206.807 117.959 205.446 119.655 203.996C120.636 203.148 121.662 202.279 122.778 201.565C125.678 199.669 129.291 198.687 133.284 198.754C135.604 198.776 139.798 199.312 141.939 202.479C143.992 205.535 143.033 209.439 142.274 211.514C141.181 214.547 139.374 217.358 137.099 219.633C136.92 219.745 136.72 219.812 136.519 219.812Z" fill="#43454E"/>
<path d="M271.119 217.603C270.941 217.603 270.762 217.536 270.628 217.425C232.885 186.173 185.059 168.952 135.961 168.952C86.8634 168.952 39.0372 186.173 1.27144 217.425C0.936835 217.693 0.446081 217.648 0.178397 217.313C-0.0892873 216.979 -0.0446733 216.488 0.289932 216.22C18.9609 200.762 39.9295 188.694 62.5934 180.373C86.0603 171.762 110.732 167.39 135.939 167.39C161.146 167.39 185.84 171.762 209.284 180.373C231.948 188.694 252.917 200.762 271.588 216.22C271.922 216.488 271.967 216.979 271.699 217.313C271.565 217.514 271.342 217.603 271.119 217.603Z" fill="#43454E"/>
<path d="M192.398 191.616C192.264 191.616 192.108 191.571 191.996 191.504C182.984 185.927 172.188 183.295 161.614 184.076C161.19 184.098 160.811 183.786 160.789 183.362C160.767 182.938 161.079 182.559 161.503 182.537C172.411 181.734 183.52 184.455 192.822 190.21C193.179 190.434 193.312 190.924 193.067 191.281C192.911 191.482 192.643 191.616 192.398 191.616Z" fill="#43454E"/>
<path d="M222.066 205.558C221.174 205.558 220.304 205.513 219.412 205.424C213.656 204.822 208.191 202.301 203.998 198.33C203.685 198.04 203.663 197.549 203.975 197.237C204.265 196.925 204.756 196.903 205.068 197.215C209.017 200.962 214.147 203.327 219.568 203.885C224.966 204.442 230.498 203.171 235.116 200.293C235.473 200.07 235.963 200.182 236.187 200.539C236.41 200.895 236.298 201.386 235.941 201.609C231.792 204.197 226.951 205.558 222.066 205.558Z" fill="#43454E"/>
<path d="M68.6163 190.478C68.3487 190.478 68.0587 190.322 67.9248 190.077C67.7241 189.697 67.8579 189.229 68.2371 189.028C72.4308 186.753 75.0631 181.845 74.5946 177.094C74.55 176.67 74.8623 176.291 75.2861 176.246C75.71 176.202 76.0892 176.514 76.1338 176.938C76.6692 182.291 73.7023 187.824 68.9733 190.389C68.884 190.456 68.7502 190.478 68.6163 190.478Z" fill="#43454E"/>
<path d="M136.809 210.666C136.63 210.666 136.43 210.599 136.296 210.465C135.984 210.175 135.939 209.684 136.229 209.372C137.857 207.543 138.326 204.732 137.367 202.39C137.032 201.565 136.586 200.962 136.05 200.65C135.694 200.427 135.56 199.936 135.783 199.579C136.006 199.222 136.497 199.089 136.853 199.312C137.679 199.825 138.326 200.65 138.794 201.81C139.976 204.71 139.396 208.168 137.389 210.421C137.233 210.577 137.01 210.666 136.809 210.666Z" fill="#43454E"/>
<path d="M255.485 152.998C253.949 151.07 250.693 150.836 246.5 152.32C245.328 151.357 243.583 151.044 241.448 151.435C239.156 151.878 236.682 153.102 234.442 154.899C232.202 156.696 230.431 158.857 229.494 160.967C228.608 162.998 228.53 164.769 229.233 166.124C226.837 169.874 226.342 173.103 227.879 175.03C228.738 176.124 230.171 176.671 231.994 176.671C233.088 176.671 234.338 176.463 235.718 176.072C239.104 175.083 242.958 172.973 246.552 170.108C250.146 167.243 253.063 163.962 254.782 160.889C256.631 157.555 256.892 154.742 255.485 152.998Z" fill="#E6E6E7"/>
<path d="M258.09 150.393C256.553 148.466 253.298 148.232 249.105 149.716C247.933 148.752 246.188 148.44 244.052 148.831C241.76 149.273 239.286 150.497 237.046 152.294C234.807 154.091 233.036 156.253 232.098 158.363C231.213 160.342 231.134 162.139 231.812 163.467C229.416 167.217 228.921 170.447 230.457 172.374C231.317 173.468 232.749 174.015 234.572 174.015C235.666 174.015 236.916 173.806 238.296 173.416C241.682 172.426 245.537 170.317 249.131 167.452C252.725 164.587 255.641 161.305 257.36 158.232C259.236 154.951 259.496 152.138 258.09 150.393Z" fill="white"/>
<path d="M267.231 145.393C266.97 145.393 266.684 145.263 266.502 145.054C266.189 144.664 266.267 144.091 266.658 143.778L269.445 141.59C269.835 141.278 270.408 141.356 270.721 141.747C271.033 142.137 270.955 142.71 270.564 143.023L267.778 145.21C267.622 145.315 267.413 145.393 267.231 145.393Z" fill="#D0D1D3"/>
<path d="M261.449 149.95C261.189 149.95 260.902 149.82 260.72 149.612C260.407 149.221 260.486 148.648 260.876 148.336L264.21 145.705C264.6 145.393 265.173 145.471 265.486 145.862C265.798 146.252 265.72 146.825 265.33 147.138L261.996 149.768C261.84 149.872 261.631 149.95 261.449 149.95Z" fill="#D0D1D3"/>
<path d="M238.583 153.284C238.322 153.284 238.036 153.154 237.854 152.945C237.541 152.555 237.619 151.982 238.01 151.669L268.09 127.917C268.481 127.605 269.054 127.683 269.366 128.074C269.679 128.464 269.601 129.037 269.21 129.35L239.156 153.076C239 153.206 238.791 153.284 238.583 153.284Z" fill="#D0D1D3"/>
<path d="M270.07 135.496C269.809 135.496 269.523 135.366 269.34 135.158C269.028 134.767 269.106 134.194 269.497 133.881L272.83 131.225C273.221 130.912 273.794 130.991 274.106 131.381C274.419 131.772 274.341 132.345 273.95 132.657L270.617 135.288C270.46 135.418 270.278 135.496 270.07 135.496Z" fill="#D0D1D3"/>
<path d="M250.042 151.305C249.782 151.305 249.495 151.174 249.313 150.966C249 150.575 249.078 150.002 249.469 149.69L266.918 135.913C267.309 135.6 267.882 135.678 268.194 136.069C268.507 136.46 268.429 137.033 268.038 137.345L250.589 151.122C250.433 151.227 250.25 151.305 250.042 151.305Z" fill="#D0D1D3"/>
<path d="M252.933 163.389C252.672 163.389 252.386 163.259 252.204 163.05C251.891 162.66 251.969 162.087 252.36 161.774L282.44 138.022C282.831 137.71 283.404 137.788 283.717 138.179C284.029 138.569 283.951 139.142 283.56 139.455L253.48 163.207C253.324 163.337 253.141 163.389 252.933 163.389Z" fill="#D0D1D3"/>
<path d="M233.53 163.936C233.374 163.936 233.192 163.884 233.062 163.806C232.645 163.545 232.515 162.972 232.775 162.556C232.801 162.503 233.426 161.488 234.78 159.951C235.119 159.561 235.692 159.534 236.057 159.873C236.447 160.212 236.473 160.785 236.135 161.149C234.911 162.556 234.312 163.493 234.312 163.519C234.155 163.78 233.843 163.936 233.53 163.936ZM237.593 159.196C237.359 159.196 237.124 159.092 236.942 158.909C236.604 158.545 236.604 157.972 236.968 157.633C237.723 156.904 238.531 156.201 239.364 155.524C239.755 155.211 240.328 155.263 240.64 155.654C240.953 156.045 240.901 156.618 240.51 156.93C239.729 157.581 238.947 158.258 238.218 158.962C238.062 159.118 237.828 159.196 237.593 159.196ZM242.437 155.237C242.151 155.237 241.864 155.107 241.682 154.847C241.396 154.43 241.474 153.857 241.89 153.57C242.776 152.945 243.687 152.346 244.547 151.826C244.99 151.565 245.536 151.695 245.797 152.138C246.057 152.581 245.927 153.128 245.484 153.388C244.651 153.883 243.792 154.456 242.932 155.081C242.802 155.185 242.62 155.237 242.437 155.237ZM247.776 152.034C247.438 152.034 247.099 151.852 246.943 151.513C246.735 151.044 246.917 150.523 247.386 150.289C248.167 149.924 248.479 149.794 248.896 150.055L248.401 150.836L247.88 151.591L248.401 150.836L248.74 151.695C248.74 151.695 248.532 151.773 248.141 151.956C248.037 152.008 247.906 152.034 247.776 152.034Z" fill="#D0D1D3"/>
<path d="M236.083 165.733C234.442 165.733 233.088 165.212 232.228 164.144C231.108 162.738 231.056 160.706 232.098 158.389C233.036 156.253 234.781 154.117 237.046 152.32C239.286 150.523 241.786 149.299 244.052 148.857C246.552 148.362 248.532 148.883 249.625 150.263C251.813 152.998 249.704 158.206 244.833 162.087C241.864 164.483 238.635 165.733 236.083 165.733ZM245.797 150.523C245.38 150.523 244.911 150.575 244.417 150.654C242.411 151.044 240.198 152.138 238.192 153.753C236.161 155.368 234.598 157.269 233.791 159.144C233.062 160.785 233.036 162.191 233.687 163.024C234.989 164.665 239.442 164.118 243.713 160.68C248.011 157.269 249.521 153.05 248.219 151.409C247.75 150.836 246.891 150.523 245.797 150.523Z" fill="#43454E"/>
<path d="M234.598 174.067C232.775 174.067 231.343 173.52 230.483 172.426C228.895 170.421 229.494 167.009 232.15 163.024C232.437 162.608 233.01 162.503 233.426 162.764C233.843 163.05 233.947 163.623 233.687 164.04C231.577 167.191 230.9 169.978 231.942 171.28C232.827 172.4 234.989 172.556 237.828 171.723C241.005 170.785 244.625 168.78 248.037 166.071C251.448 163.363 254.209 160.264 255.824 157.373C257.282 154.769 257.595 152.633 256.709 151.539C255.668 150.237 252.803 150.263 249.261 151.643C248.792 151.826 248.271 151.591 248.089 151.122C247.906 150.654 248.141 150.133 248.61 149.95C253.063 148.232 256.527 148.414 258.142 150.419C259.522 152.164 259.262 154.951 257.412 158.284C255.694 161.384 252.777 164.639 249.183 167.504C245.589 170.369 241.734 172.478 238.348 173.468C236.942 173.885 235.692 174.067 234.598 174.067Z" fill="#43454E"/>
<path d="M247.05 164.891C247.489 164.542 247.561 163.903 247.211 163.464C246.862 163.025 246.223 162.953 245.784 163.303C245.345 163.653 245.273 164.292 245.623 164.73C245.973 165.169 246.612 165.241 247.05 164.891Z" fill="#43454E"/>
<path d="M253.547 156.661C253.986 156.312 254.058 155.673 253.708 155.234C253.358 154.795 252.719 154.723 252.281 155.073C251.842 155.423 251.77 156.062 252.12 156.5C252.469 156.939 253.108 157.011 253.547 156.661Z" fill="#43454E"/>
<path d="M236.82 169.368C237.259 169.019 237.331 168.38 236.981 167.941C236.631 167.503 235.992 167.43 235.554 167.78C235.115 168.13 235.043 168.769 235.393 169.208C235.743 169.646 236.382 169.718 236.82 169.368Z" fill="#43454E"/>
</g>
<path d="M205.902 180.043C204.359 177.791 201.789 178.426 199.059 178.426C198.722 178.426 198.367 178.444 198.031 178.497C197.286 172.612 192.234 168.091 186.242 168.091C184.983 168.091 183.742 168.286 182.555 168.676L178.495 155.788C178.991 153.998 179.311 152.527 179.311 151.729C179.311 149.477 178.194 147.492 176.474 146.286V142.776H177.29C177.626 142.776 177.91 142.493 177.91 142.156V138.167H180.835C181.048 138.167 181.261 138.043 181.367 137.866C181.473 137.671 181.473 137.441 181.367 137.246L177.91 131.005V127.176H178.903C182.236 127.176 185.249 125.475 186.969 122.603C188.688 119.749 188.777 116.274 187.199 113.331L182.537 104.592V75.7846C182.555 75.7137 182.572 75.6428 182.572 75.5719C182.572 75.501 182.555 75.4301 182.537 75.3592V72.2391C182.555 72.1682 182.572 72.0973 182.572 72.0264C182.572 71.9555 182.555 71.8846 182.537 71.8137V60.149C182.555 60.0781 182.572 60.0072 182.572 59.9363C182.572 59.8654 182.555 59.7945 182.537 59.7236V56.6036C182.555 56.5326 182.572 56.4617 182.572 56.3908C182.572 56.3199 182.555 56.249 182.537 56.1781V41.2339C182.537 41.1807 182.537 41.1453 182.519 41.0921C182.519 41.0744 182.519 41.0744 182.501 41.0566C182.501 41.0212 182.484 40.9857 182.466 40.968V40.9503L175.96 27.5838C175.854 27.3711 175.641 27.2293 175.41 27.2293C175.18 27.2293 174.95 27.3711 174.861 27.5838L168.355 40.9503V40.968C168.337 41.0034 168.337 41.0212 168.32 41.0566C168.32 41.0744 168.32 41.0744 168.302 41.0921C168.284 41.1275 168.284 41.1807 168.284 41.2339V77.9474L164.987 71.7428V48.0944C164.987 33.6643 161.601 19.181 155.184 6.24001C153.819 3.49226 151.053 1.77271 147.968 1.77271C144.884 1.77271 142.118 3.49226 140.736 6.25774C134.318 19.1987 130.932 33.6643 130.932 48.1121V71.6541C130.932 71.6896 130.932 71.725 130.95 71.7428L127.6 78.0005V41.2162C127.6 41.163 127.6 41.1275 127.582 41.0744C127.582 41.0566 127.582 41.0566 127.564 41.0389C127.564 41.0034 127.547 40.968 127.529 40.9503V40.9325L121.023 27.5661C120.916 27.3533 120.704 27.2115 120.473 27.2115C120.243 27.2115 120.012 27.3533 119.924 27.5661L113.418 40.9503V40.968C113.4 41.0034 113.4 41.0212 113.382 41.0566C113.382 41.0744 113.382 41.0744 113.365 41.0921C113.347 41.1275 113.347 41.1807 113.347 41.2339V104.68L108.702 113.367C107.125 116.309 107.213 119.766 108.933 122.638C110.652 125.492 113.666 127.212 116.999 127.212H117.991V131.005L114.517 137.246C114.411 137.441 114.411 137.671 114.517 137.866C114.623 138.061 114.836 138.167 115.049 138.167H118.009V142.156C118.009 142.493 118.293 142.776 118.63 142.776H119.534V146.286C117.814 147.492 116.697 149.477 116.697 151.729C116.697 152.527 117.016 153.998 117.513 155.788L113.453 168.676C112.265 168.286 111.025 168.091 109.766 168.091C103.756 168.091 98.704 172.612 97.9772 178.497C97.6404 178.462 97.3368 178.5 97 178.5C97 178 94.2699 178.5 97 178.5C97 178.5 97.2163 179.805 97.4999 180C97.6063 180.071 98.3758 181 98.4999 181L205.405 181.018C205.529 181.018 205.653 180.982 205.76 180.911C206.026 180.699 206.097 180.326 205.902 180.043ZM168.887 146.286C167.167 147.492 166.05 149.477 166.05 151.729C166.05 152.527 166.37 153.998 166.866 155.788L161.353 173.161C160.626 172.984 159.881 172.895 159.119 172.895C153.889 172.895 149.635 175.15 149.635 180.38H146.444C146.444 175.15 142.189 172.895 136.96 172.895C136.197 172.895 135.453 172.984 134.726 173.161L129.213 155.788C129.709 153.998 130.028 152.527 130.028 151.729C130.028 149.477 128.912 147.492 127.192 146.286V142.776H128.096C128.433 142.776 128.717 142.493 128.717 142.156V138.167H131.659C131.872 138.167 132.085 138.043 132.191 137.866C132.297 137.671 132.297 137.441 132.191 137.246L128.734 131.005V127.176H131.606H137.952V131.165C137.952 131.502 138.236 131.785 138.573 131.785H146.231V136.253C146.231 136.59 146.515 136.873 146.852 136.873H149.174C149.511 136.873 149.794 136.59 149.794 136.253V131.785H157.453C157.789 131.785 158.073 131.502 158.073 131.165V127.176H164.419H167.291V131.005L163.817 137.246C163.71 137.441 163.71 137.671 163.817 137.866C163.923 138.061 164.136 138.167 164.349 138.167H167.291V142.156C167.291 142.493 167.575 142.776 167.912 142.776H168.905V146.286H168.887Z" fill="#CDD6DF"/>
<path d="M207.674 180.27C206.132 178.019 203.562 176.654 200.832 176.654C200.495 176.654 200.14 176.671 199.804 176.724C199.059 170.839 194.007 166.318 188.015 166.318C186.756 166.318 185.515 166.514 184.327 166.904L180.268 154.016C180.764 152.225 181.083 150.754 181.083 149.956C181.083 147.705 179.967 145.719 178.247 144.514V141.004H179.062C179.399 141.004 179.683 140.72 179.683 140.383V136.395H182.608C182.821 136.395 183.033 136.271 183.14 136.093C183.246 135.898 183.246 135.668 183.14 135.473L179.683 129.233V125.404H180.676C184.008 125.404 187.022 123.702 188.742 120.83C190.461 117.976 190.55 114.501 188.972 111.559L184.31 102.819V74.0119C184.327 73.941 184.345 73.8701 184.345 73.7992C184.345 73.7283 184.327 73.6574 184.31 73.5864V70.4664C184.327 70.3955 184.345 70.3246 184.345 70.2537C184.345 70.1828 184.327 70.1119 184.31 70.041V58.3763C184.327 58.3054 184.345 58.2345 184.345 58.1636C184.345 58.0927 184.327 58.0218 184.31 57.9509V54.8309C184.327 54.7599 184.345 54.689 184.345 54.6181C184.345 54.5472 184.327 54.4763 184.31 54.4054V39.4612C184.31 39.408 184.31 39.3726 184.292 39.3194C184.292 39.3017 184.292 39.3017 184.274 39.2839C184.274 39.2485 184.257 39.213 184.239 39.1953V39.1776L177.733 25.8111C177.627 25.5984 177.414 25.4566 177.183 25.4566C176.953 25.4566 176.722 25.5984 176.634 25.8111L170.128 39.1776V39.1953C170.11 39.2307 170.11 39.2485 170.092 39.2839C170.092 39.3017 170.092 39.3017 170.075 39.3194C170.057 39.3548 170.057 39.408 170.057 39.4612V76.1747L166.76 69.9701V46.3217C166.76 31.8916 163.374 17.4083 156.956 4.46731C155.591 1.71956 152.826 0 149.741 0C146.657 0 143.891 1.71956 142.509 4.48503C136.091 17.426 132.705 31.8916 132.705 46.3394V69.8814C132.705 69.9169 132.705 69.9523 132.723 69.9701L129.373 76.2278V39.4435C129.373 39.3903 129.373 39.3548 129.355 39.3017C129.355 39.2839 129.355 39.2839 129.337 39.2662C129.337 39.2307 129.319 39.1953 129.302 39.1776V39.1598L122.796 25.7934C122.689 25.5806 122.477 25.4388 122.246 25.4388C122.016 25.4388 121.785 25.5806 121.697 25.7934L115.191 39.1776V39.1953C115.173 39.2307 115.173 39.2485 115.155 39.2839C115.155 39.3017 115.155 39.3017 115.137 39.3194C115.12 39.3548 115.12 39.408 115.12 39.4612V102.908L110.475 111.594C108.897 114.537 108.986 117.994 110.706 120.865C112.425 123.72 115.439 125.439 118.772 125.439H119.764V129.233L116.29 135.473C116.183 135.668 116.183 135.898 116.29 136.093C116.396 136.288 116.609 136.395 116.822 136.395H119.782V140.383C119.782 140.72 120.066 141.004 120.402 141.004H121.307V144.514C119.587 145.719 118.47 147.705 118.47 149.956C118.47 150.754 118.789 152.225 119.286 154.016L115.226 166.904C114.038 166.514 112.797 166.318 111.539 166.318C105.529 166.318 100.477 170.839 99.75 176.724C99.4132 176.689 99.0587 176.654 98.7218 176.654C95.9918 176.654 93.4214 178.001 91.8791 180.27C91.6841 180.554 91.755 180.944 92.0386 181.139C92.145 181.21 92.2691 181.245 92.3932 181.245H207.178C207.302 181.245 207.426 181.21 207.533 181.139C207.799 180.926 207.869 180.554 207.674 180.27ZM170.66 144.514C168.94 145.719 167.823 147.705 167.823 149.956C167.823 150.754 168.142 152.225 168.639 154.016L163.126 171.389C162.399 171.211 161.654 171.123 160.892 171.123C155.662 171.123 151.408 175.377 151.408 180.607H148.217C148.217 175.377 143.962 171.123 138.733 171.123C137.97 171.123 137.226 171.211 136.499 171.389L130.986 154.016C131.482 152.225 131.801 150.754 131.801 149.956C131.801 147.705 130.684 145.719 128.965 144.514V141.004H129.869C130.206 141.004 130.489 140.72 130.489 140.383V136.395H133.432C133.645 136.395 133.858 136.271 133.964 136.093C134.07 135.898 134.07 135.668 133.964 135.473L130.507 129.233V125.404H133.379H139.725V129.392C139.725 129.729 140.009 130.013 140.346 130.013H148.004V134.48C148.004 134.817 148.288 135.101 148.624 135.101H150.947C151.284 135.101 151.567 134.817 151.567 134.48V130.013H159.225C159.562 130.013 159.846 129.729 159.846 129.392V125.404H166.192H169.064V129.233L165.59 135.473C165.483 135.668 165.483 135.898 165.59 136.093C165.696 136.288 165.909 136.395 166.121 136.395H169.064V140.383C169.064 140.72 169.348 141.004 169.685 141.004H170.677V144.514H170.66Z" fill="white"/>
<path d="M128.362 142.901H121.909C121.572 142.901 121.289 142.617 121.289 142.28C121.289 141.943 121.572 141.66 121.909 141.66H128.38C128.716 141.66 129 141.943 129 142.28C129 142.617 128.716 142.901 128.362 142.901Z" fill="#D0D1D3"/>
<path d="M177.626 142.901H171.174C170.837 142.901 170.553 142.617 170.553 142.28C170.553 141.943 170.837 141.66 171.174 141.66H177.626C177.963 141.66 178.247 141.943 178.247 142.28C178.247 142.617 177.963 142.901 177.626 142.901Z" fill="#D0D1D3"/>
<path d="M122.6 129.729C122.264 129.729 121.98 129.446 121.98 129.109V124.801C121.98 124.464 122.264 124.18 122.6 124.18C122.937 124.18 123.221 124.464 123.221 124.801V129.126C123.221 129.463 122.937 129.729 122.6 129.729Z" fill="#D0D1D3"/>
<path d="M125.171 129.729C124.834 129.729 124.551 129.446 124.551 129.109V124.801C124.551 124.464 124.834 124.18 125.171 124.18C125.508 124.18 125.791 124.464 125.791 124.801V129.126C125.791 129.463 125.508 129.729 125.171 129.729Z" fill="#D0D1D3"/>
<path d="M127.741 129.729C127.405 129.729 127.121 129.446 127.121 129.109V124.801C127.121 124.464 127.405 124.18 127.741 124.18C128.078 124.18 128.362 124.464 128.362 124.801V129.126C128.362 129.463 128.078 129.729 127.741 129.729Z" fill="#D0D1D3"/>
<path d="M171.918 129.729C171.581 129.729 171.298 129.446 171.298 129.109V124.801C171.298 124.464 171.581 124.18 171.918 124.18C172.255 124.18 172.539 124.464 172.539 124.801V129.126C172.539 129.463 172.255 129.729 171.918 129.729Z" fill="#D0D1D3"/>
<path d="M174.489 129.729C174.152 129.729 173.868 129.446 173.868 129.109V124.801C173.868 124.464 174.152 124.18 174.489 124.18C174.825 124.18 175.109 124.464 175.109 124.801V129.126C175.109 129.463 174.825 129.729 174.489 129.729Z" fill="#D0D1D3"/>
<path d="M177.059 129.729C176.722 129.729 176.439 129.446 176.439 129.109V124.801C176.439 124.464 176.722 124.18 177.059 124.18C177.396 124.18 177.68 124.464 177.68 124.801V129.126C177.68 129.463 177.396 129.729 177.059 129.729Z" fill="#D0D1D3"/>
<path d="M171.918 140.862C171.581 140.862 171.298 140.578 171.298 140.241V135.916C171.298 135.579 171.581 135.296 171.918 135.296C172.255 135.296 172.539 135.579 172.539 135.916V140.241C172.539 140.578 172.255 140.862 171.918 140.862Z" fill="#D0D1D3"/>
<path d="M174.489 140.862C174.152 140.862 173.868 140.578 173.868 140.241V135.916C173.868 135.579 174.152 135.296 174.489 135.296C174.825 135.296 175.109 135.579 175.109 135.916V140.241C175.109 140.578 174.825 140.862 174.489 140.862Z" fill="#D0D1D3"/>
<path d="M177.059 140.862C176.722 140.862 176.439 140.578 176.439 140.241V135.916C176.439 135.579 176.722 135.296 177.059 135.296C177.396 135.296 177.68 135.579 177.68 135.916V140.241C177.68 140.578 177.396 140.862 177.059 140.862Z" fill="#D0D1D3"/>
<path d="M122.6 140.862C122.264 140.862 121.98 140.578 121.98 140.241V135.916C121.98 135.579 122.264 135.296 122.6 135.296C122.937 135.296 123.221 135.579 123.221 135.916V140.241C123.221 140.578 122.937 140.862 122.6 140.862Z" fill="#D0D1D3"/>
<path d="M125.171 140.862C124.834 140.862 124.551 140.578 124.551 140.241V135.916C124.551 135.579 124.834 135.296 125.171 135.296C125.508 135.296 125.791 135.579 125.791 135.916V140.241C125.791 140.578 125.508 140.862 125.171 140.862Z" fill="#D0D1D3"/>
<path d="M127.741 140.862C127.405 140.862 127.121 140.578 127.121 140.241V135.916C127.121 135.579 127.405 135.296 127.741 135.296C128.078 135.296 128.362 135.579 128.362 135.916V140.241C128.362 140.578 128.078 140.862 127.741 140.862Z" fill="#D0D1D3"/>
<path d="M148.429 128.098H144.37C142.969 128.098 141.817 126.964 141.817 125.545V124.801C141.817 124.464 142.101 124.18 142.437 124.18C142.774 124.18 143.058 124.464 143.058 124.801V125.563C143.058 126.29 143.643 126.875 144.37 126.875H148.429C148.766 126.875 149.05 127.159 149.05 127.496C149.05 127.832 148.784 128.098 148.429 128.098Z" fill="#D0D1D3"/>
<path d="M155.254 128.098H151.195C150.858 128.098 150.574 127.815 150.574 127.478C150.574 127.141 150.858 126.857 151.195 126.857H155.254C155.981 126.857 156.566 126.272 156.566 125.545V124.801C156.566 124.464 156.85 124.18 157.187 124.18C157.523 124.18 157.807 124.464 157.807 124.801V125.563C157.807 126.964 156.655 128.098 155.254 128.098Z" fill="#D0D1D3"/>
<path d="M161.654 61.8155C161.317 61.8155 161.034 61.5318 161.034 61.195V39.4612C161.034 29.1793 158.623 18.862 154.049 9.64372C153.233 7.97734 151.638 6.9846 149.777 6.9846C147.933 6.9846 146.32 7.97734 145.504 9.64372C140.931 18.862 138.52 29.1616 138.52 39.4612V61.2127C138.52 61.5496 138.236 61.8332 137.899 61.8332C137.562 61.8332 137.279 61.5496 137.279 61.2127V39.4612C137.279 28.9843 139.743 18.4897 144.387 9.09417C145.416 7.03779 147.472 5.76141 149.777 5.76141C152.081 5.76141 154.138 7.03779 155.166 9.09417C159.81 18.4897 162.274 28.9843 162.274 39.4612V61.2127C162.274 61.5496 161.991 61.8155 161.654 61.8155Z" fill="#A0D1F1"/>
<path d="M133.379 122.177H126.873C126.536 122.177 126.252 121.894 126.252 121.557C126.252 121.22 126.536 120.936 126.873 120.936H133.379C133.715 120.936 133.999 121.22 133.999 121.557C133.999 121.894 133.715 122.177 133.379 122.177Z" fill="#D0D1D3"/>
<path d="M124.497 122.177H122.015C121.679 122.177 121.395 121.894 121.395 121.557C121.395 121.22 121.679 120.936 122.015 120.936H124.497C124.834 120.936 125.118 121.22 125.118 121.557C125.118 121.894 124.852 122.177 124.497 122.177Z" fill="#D0D1D3"/>
<path d="M117.371 120.227C115.616 120.227 114.18 118.791 114.18 117.036C114.18 115.281 115.616 113.845 117.371 113.845C119.126 113.845 120.562 115.281 120.562 117.036C120.562 118.791 119.126 120.227 117.371 120.227ZM117.371 115.086C116.289 115.086 115.421 115.955 115.421 117.036C115.421 118.118 116.289 118.986 117.371 118.986C118.452 118.986 119.321 118.118 119.321 117.036C119.321 115.955 118.435 115.086 117.371 115.086Z" fill="#A0D1F1"/>
<path d="M172.698 122.177H166.192C165.855 122.177 165.572 121.894 165.572 121.557C165.572 121.22 165.855 120.936 166.192 120.936H172.698C173.035 120.936 173.319 121.22 173.319 121.557C173.319 121.894 173.035 122.177 172.698 122.177Z" fill="#D0D1D3"/>
<path d="M177.538 122.177H175.056C174.719 122.177 174.436 121.894 174.436 121.557C174.436 121.22 174.719 120.936 175.056 120.936H177.538C177.875 120.936 178.158 121.22 178.158 121.557C178.158 121.894 177.892 122.177 177.538 122.177Z" fill="#D0D1D3"/>
<path d="M182.2 120.227C180.445 120.227 179.009 118.791 179.009 117.036C179.009 115.281 180.445 113.845 182.2 113.845C183.955 113.845 185.391 115.281 185.391 117.036C185.391 118.791 183.955 120.227 182.2 120.227ZM182.2 115.086C181.119 115.086 180.25 115.955 180.25 117.036C180.25 118.118 181.119 118.986 182.2 118.986C183.282 118.986 184.15 118.118 184.15 117.036C184.15 115.955 183.282 115.086 182.2 115.086Z" fill="#A0D1F1"/>
<path d="M146.019 125.421C145.682 125.421 145.398 125.138 145.398 124.801V121.894H136.765V124.801C136.765 125.138 136.481 125.421 136.144 125.421C135.808 125.421 135.524 125.138 135.524 124.801V121.255C135.524 120.919 135.808 120.635 136.144 120.635H146.019C146.355 120.635 146.639 120.919 146.639 121.255V124.801C146.639 125.138 146.355 125.421 146.019 125.421Z" fill="#CDD6DF"/>
<path d="M163.622 125.421C163.285 125.421 163.001 125.138 163.001 124.801V121.894H154.368V124.801C154.368 125.138 154.084 125.421 153.748 125.421C153.411 125.421 153.127 125.138 153.127 124.801V121.255C153.127 120.919 153.411 120.635 153.748 120.635H163.622C163.959 120.635 164.242 120.919 164.242 121.255V124.801C164.242 125.138 163.959 125.421 163.622 125.421Z" fill="#CDD6DF"/>
<path d="M159.225 68.6048C159.084 68.6048 158.96 68.5516 158.835 68.463L154.971 65.343C154.705 65.1302 154.669 64.7402 154.882 64.4743C155.095 64.2084 155.485 64.173 155.751 64.3857L159.615 67.5057C159.881 67.7184 159.917 68.1084 159.704 68.3743C159.58 68.5339 159.403 68.6048 159.225 68.6048Z" fill="#A0D1F1"/>
<path d="M159.225 77.7523C159.084 77.7523 158.96 77.6991 158.835 77.6105L154.971 74.4905C154.705 74.2778 154.669 73.8878 154.882 73.6218C155.095 73.3559 155.485 73.3205 155.751 73.5332L159.615 76.6532C159.881 76.866 159.917 77.256 159.704 77.5219C159.58 77.6814 159.403 77.7523 159.225 77.7523Z" fill="#A0D1F1"/>
<path d="M159.225 84.6484C159.084 84.6484 158.96 84.5952 158.835 84.5066L154.971 81.3865C154.705 81.1738 154.669 80.7838 154.882 80.5179C155.095 80.252 155.485 80.2165 155.751 80.4293L159.615 83.5493C159.881 83.762 159.917 84.152 159.704 84.4179C159.58 84.5775 159.403 84.6484 159.225 84.6484Z" fill="#A0D1F1"/>
<path d="M159.225 91.5443C159.084 91.5443 158.96 91.4911 158.835 91.4024L154.971 88.2824C154.705 88.0697 154.669 87.6797 154.882 87.4138C155.095 87.1479 155.485 87.1124 155.751 87.3251L159.615 90.4452C159.881 90.6579 159.917 91.0479 159.704 91.3138C159.58 91.4556 159.403 91.5443 159.225 91.5443Z" fill="#A0D1F1"/>
<path d="M159.225 98.4402C159.084 98.4402 158.96 98.3871 158.835 98.2984L154.971 95.1784C154.705 94.9657 154.669 94.5757 154.882 94.3098C155.095 94.0439 155.485 94.0084 155.751 94.2211L159.615 97.3411C159.881 97.5539 159.917 97.9439 159.704 98.2098C159.58 98.3516 159.403 98.4402 159.225 98.4402Z" fill="#A0D1F1"/>
<path d="M140.346 68.6048C140.168 68.6048 139.991 68.5339 139.867 68.3743C139.654 68.1084 139.69 67.7184 139.956 67.5057L143.82 64.3857C144.086 64.173 144.476 64.2084 144.689 64.4743C144.902 64.7402 144.866 65.1302 144.6 65.343L140.736 68.4807C140.612 68.5693 140.488 68.6048 140.346 68.6048Z" fill="#A0D1F1"/>
<path d="M140.346 77.7523C140.168 77.7523 139.991 77.6814 139.867 77.5219C139.654 77.256 139.69 76.866 139.956 76.6532L143.82 73.5332C144.086 73.3205 144.476 73.3559 144.689 73.6218C144.902 73.8878 144.866 74.2778 144.6 74.4905L140.736 77.6105C140.612 77.7169 140.488 77.7523 140.346 77.7523Z" fill="#A0D1F1"/>
<path d="M140.346 84.6484C140.168 84.6484 139.991 84.5775 139.867 84.4179C139.654 84.152 139.69 83.762 139.956 83.5493L143.82 80.4293C144.086 80.2165 144.476 80.252 144.689 80.5179C144.902 80.7838 144.866 81.1738 144.6 81.3865L140.736 84.5066C140.612 84.6129 140.488 84.6484 140.346 84.6484Z" fill="#A0D1F1"/>
<path d="M140.346 91.5443C140.168 91.5443 139.991 91.4733 139.867 91.3138C139.654 91.0479 139.69 90.6579 139.956 90.4452L143.82 87.3251C144.086 87.1124 144.476 87.1479 144.689 87.4138C144.902 87.6797 144.866 88.0697 144.6 88.2824L140.736 91.4024C140.612 91.4911 140.488 91.5443 140.346 91.5443Z" fill="#A0D1F1"/>
<path d="M140.346 98.4402C140.168 98.4402 139.991 98.3693 139.867 98.2098C139.654 97.9439 139.69 97.5539 139.956 97.3411L143.82 94.2211C144.086 94.0084 144.476 94.0439 144.689 94.3098C144.902 94.5757 144.866 94.9657 144.6 95.1784L140.736 98.2984C140.612 98.3871 140.488 98.4402 140.346 98.4402Z" fill="#A0D1F1"/>
<path d="M155.361 112.575C155.024 112.575 154.74 112.292 154.74 111.955V60.7225H144.831V111.955C144.831 112.292 144.547 112.575 144.21 112.575C143.873 112.575 143.59 112.292 143.59 111.955V60.1021C143.59 59.7653 143.873 59.4816 144.21 59.4816H155.361C155.698 59.4816 155.981 59.7653 155.981 60.1021V111.955C155.981 112.292 155.698 112.575 155.361 112.575Z" fill="#A0D1F1"/>
<path d="M121.377 104.486C121.271 104.486 121.182 104.468 121.094 104.415C120.792 104.255 120.668 103.883 120.828 103.582L139.778 67.6836C139.938 67.3823 140.31 67.2582 140.612 67.4177C140.913 67.5773 141.037 67.9495 140.878 68.2509L121.927 104.167C121.821 104.379 121.608 104.486 121.377 104.486Z" fill="#A0D1F1"/>
<path d="M178.176 104.486C177.946 104.486 177.733 104.362 177.626 104.149L158.676 68.2509C158.516 67.9495 158.64 67.5773 158.942 67.4177C159.243 67.2582 159.615 67.3823 159.775 67.6836L178.726 103.582C178.885 103.883 178.761 104.255 178.46 104.415C178.371 104.468 178.282 104.486 178.176 104.486Z" fill="#A0D1F1"/>
<path d="M127.414 47.353L127.414 60.3472C127.414 60.684 127.13 60.9677 126.793 60.9677C126.457 60.9677 126.173 60.684 126.173 60.3472L126.173 47.353C126.173 47.0162 126.457 46.7325 126.793 46.7325C127.13 46.7325 127.414 46.9985 127.414 47.353Z" fill="#A0D1F1"/>
<path d="M119.158 50.8986L119.158 63.8928C119.158 64.2296 118.874 64.5132 118.538 64.5132C118.201 64.5132 117.917 64.2296 117.917 63.8928L117.917 50.8986C117.917 50.5618 118.201 50.2781 118.538 50.2781C118.874 50.2781 119.158 50.544 119.158 50.8986Z" fill="#A0D1F1"/>
<path d="M127.414 62.9886L127.414 75.9828C127.414 76.3196 127.13 76.6033 126.793 76.6033C126.457 76.6033 126.173 76.3196 126.173 75.9828L126.173 62.9886C126.173 62.6518 126.457 62.3682 126.793 62.3682C127.13 62.3682 127.414 62.6341 127.414 62.9886Z" fill="#A0D1F1"/>
<path d="M119.158 66.534L119.158 79.5282C119.158 79.865 118.875 80.1487 118.538 80.1487C118.201 80.1487 117.917 79.865 117.917 79.5282L117.917 66.534C117.917 66.1972 118.201 65.9136 118.538 65.9136C118.875 65.9136 119.158 66.1795 119.158 66.534Z" fill="#A0D1F1"/>
<path d="M181.452 48.1036L181.452 61.0978C181.452 61.4346 181.169 61.7183 180.832 61.7183C180.495 61.7183 180.212 61.4346 180.212 61.0978L180.212 48.1036C180.212 47.7668 180.495 47.4832 180.832 47.4832C181.169 47.4832 181.452 47.7491 181.452 48.1036Z" fill="#A0D1F1"/>
<path d="M173.197 50.8986L173.197 63.8928C173.197 64.2296 172.913 64.5132 172.576 64.5132C172.239 64.5132 171.956 64.2296 171.956 63.8928L171.956 50.8986C171.956 50.5618 172.239 50.2781 172.576 50.2781C172.913 50.2781 173.197 50.544 173.197 50.8986Z" fill="#A0D1F1"/>
<path d="M181.452 63.7392L181.452 76.7334C181.452 77.0702 181.169 77.3538 180.832 77.3538C180.495 77.3538 180.212 77.0702 180.212 76.7334L180.212 63.7392C180.212 63.4024 180.495 63.1187 180.832 63.1187C181.169 63.1187 181.452 63.3846 181.452 63.7392Z" fill="#A0D1F1"/>
<path d="M173.197 66.5341L173.197 79.5283C173.197 79.8651 172.913 80.1487 172.576 80.1487C172.239 80.1487 171.956 79.8651 171.956 79.5283L171.956 66.5341C171.956 66.1973 172.239 65.9136 172.576 65.9136C172.913 65.9136 173.197 66.1795 173.197 66.5341Z" fill="#A0D1F1"/>
<path d="M159.225 130.013H140.346C140.009 130.013 139.725 129.729 139.725 129.392V124.783C139.725 124.446 140.009 124.163 140.346 124.163H159.225C159.562 124.163 159.846 124.446 159.846 124.783V129.392C159.846 129.747 159.562 130.013 159.225 130.013ZM140.966 128.772H158.605V125.404H140.966V128.772Z" fill="#43454E"/>
<path d="M159.225 109.573H140.346C140.009 109.573 139.725 109.289 139.725 108.953V59.7768C139.725 51.3918 141.374 43.2194 144.6 35.4726L145.238 33.948C146.018 32.0866 147.756 30.9166 149.794 30.9166C151.815 30.9166 153.552 32.0689 154.35 33.948L154.988 35.4726C158.233 43.2017 159.863 51.3918 159.863 59.7768V108.953C159.846 109.289 159.562 109.573 159.225 109.573ZM140.966 108.332H158.605V59.7768C158.605 51.5513 156.992 43.5385 153.818 35.9512L153.18 34.4267C152.595 33.0262 151.283 32.1575 149.777 32.1575C148.27 32.1575 146.958 33.0262 146.373 34.4267L145.735 35.9512C142.561 43.5385 140.948 51.5513 140.948 59.7768V108.332H140.966Z" fill="#43454E"/>
<path d="M166.192 125.421H133.379C133.042 125.421 132.758 125.138 132.758 124.801V116.026C132.758 111.789 136.215 108.332 140.452 108.332H159.119C163.356 108.332 166.813 111.789 166.813 116.026V124.801C166.813 125.138 166.529 125.421 166.192 125.421ZM133.999 124.18H165.572V116.026C165.572 112.463 162.682 109.573 159.119 109.573H140.452C136.889 109.573 133.999 112.463 133.999 116.026V124.18Z" fill="#43454E"/>
<path d="M150.947 112.144H148.624V134.48H150.947V112.144Z" fill="white"/>
<path d="M150.947 135.101H148.624C148.288 135.101 148.004 134.817 148.004 134.48V112.144C148.004 111.807 148.288 111.523 148.624 111.523H150.947C151.283 111.523 151.567 111.807 151.567 112.144V134.48C151.567 134.817 151.283 135.101 150.947 135.101ZM149.245 133.86H150.326V112.764H149.245V133.86Z" fill="#43454E"/>
<path d="M156.673 42.7762H142.881C142.686 42.7762 142.508 42.6876 142.384 42.528C142.26 42.3685 142.225 42.1735 142.278 41.9785C142.828 40.1348 143.448 38.2912 144.157 36.5184C144.246 36.288 144.476 36.1284 144.742 36.1284H154.794C155.042 36.1284 155.272 36.288 155.379 36.5184C156.088 38.2912 156.726 40.1348 157.258 41.9785C157.311 42.1735 157.275 42.3685 157.151 42.528C157.063 42.6698 156.868 42.7762 156.673 42.7762ZM143.732 41.5353H155.839C155.396 40.1348 154.918 38.7343 154.386 37.3693H145.185C144.653 38.7166 144.157 40.1171 143.732 41.5353Z" fill="#43454E"/>
<path d="M155.361 53.4481H152.578C152.241 53.4481 151.957 53.1645 151.957 52.8277C151.957 51.6399 150.982 50.6649 149.794 50.6649C148.607 50.6649 147.614 51.6399 147.614 52.8277C147.614 53.1645 147.33 53.4481 146.993 53.4481H144.21C143.873 53.4481 143.59 53.1645 143.59 52.8277C143.59 49.4063 146.373 46.6408 149.777 46.6408C153.18 46.6408 155.963 49.424 155.963 52.8277C155.981 53.1645 155.698 53.4481 155.361 53.4481ZM153.127 52.2072H154.687C154.386 49.7608 152.294 47.8817 149.777 47.8817C147.259 47.8817 145.167 49.7786 144.866 52.2072H146.426C146.727 50.6295 148.11 49.424 149.777 49.424C151.443 49.424 152.843 50.6295 153.127 52.2072Z" fill="#43454E"/>
<path d="M129.887 130.013H120.456C120.119 130.013 119.835 129.729 119.835 129.392V124.783C119.835 124.446 120.119 124.163 120.456 124.163H129.887C130.223 124.163 130.507 124.446 130.507 124.783V129.392C130.507 129.747 130.223 130.013 129.887 130.013ZM121.076 128.772H129.266V125.404H121.076V128.772Z" fill="#43454E"/>
<path d="M129.887 141.004H120.456C120.119 141.004 119.835 140.72 119.835 140.383V135.774C119.835 135.437 120.119 135.154 120.456 135.154H129.887C130.223 135.154 130.507 135.437 130.507 135.774V140.383C130.507 140.72 130.223 141.004 129.887 141.004ZM121.076 139.763H129.266V136.395H121.076V139.763Z" fill="#43454E"/>
<path d="M133.432 136.395H116.91C116.697 136.395 116.485 136.271 116.378 136.093C116.272 135.916 116.272 135.668 116.378 135.473L119.924 129.091C120.03 128.896 120.243 128.772 120.473 128.772H129.887C130.117 128.772 130.312 128.896 130.436 129.091L133.982 135.473C134.088 135.668 134.088 135.898 133.982 136.093C133.875 136.288 133.645 136.395 133.432 136.395ZM117.956 135.154H132.368L129.514 130.013H120.81L117.956 135.154Z" fill="#43454E"/>
<path d="M133.379 125.421H118.825C115.492 125.421 112.478 123.72 110.759 120.848C109.039 117.994 108.95 114.519 110.528 111.576L139.778 56.7986C139.938 56.4973 140.31 56.3909 140.612 56.5505C140.913 56.71 141.019 57.0823 140.86 57.3836L111.61 112.161C110.245 114.714 110.315 117.728 111.805 120.21C113.294 122.691 115.917 124.181 118.807 124.181H133.361C133.698 124.181 133.982 124.464 133.982 124.801C133.982 125.138 133.716 125.421 133.379 125.421Z" fill="#43454E"/>
<path d="M179.115 130.013H169.684C169.348 130.013 169.064 129.729 169.064 129.392V124.783C169.064 124.446 169.348 124.163 169.684 124.163H179.115C179.452 124.163 179.736 124.446 179.736 124.783V129.392C179.736 129.747 179.452 130.013 179.115 130.013ZM170.305 128.772H178.495V125.404H170.305V128.772Z" fill="#43454E"/>
<path d="M179.115 141.004H169.684C169.348 141.004 169.064 140.72 169.064 140.383V135.774C169.064 135.437 169.348 135.154 169.684 135.154H179.115C179.452 135.154 179.736 135.437 179.736 135.774V140.383C179.736 140.72 179.452 141.004 179.115 141.004ZM170.305 139.763H178.495V136.395H170.305V139.763Z" fill="#43454E"/>
<path d="M182.661 136.395H166.139C165.926 136.395 165.713 136.271 165.607 136.093C165.501 135.916 165.501 135.668 165.607 135.473L169.153 129.091C169.259 128.896 169.472 128.772 169.702 128.772H179.133C179.364 128.772 179.559 128.896 179.683 129.091L183.228 135.473C183.335 135.668 183.335 135.898 183.228 136.093C183.122 136.288 182.874 136.395 182.661 136.395ZM167.185 135.154H181.597L178.743 130.013H170.039L167.185 135.154Z" fill="#43454E"/>
<path d="M180.729 125.421H166.174C165.838 125.421 165.554 125.138 165.554 124.801C165.554 124.464 165.838 124.181 166.174 124.181H180.729C183.618 124.181 186.242 122.691 187.731 120.21C189.22 117.728 189.291 114.714 187.926 112.161L158.676 57.3836C158.516 57.0823 158.623 56.71 158.924 56.5505C159.225 56.3909 159.598 56.4973 159.757 56.7986L189.007 111.576C190.585 114.519 190.496 117.976 188.777 120.848C187.075 123.702 184.061 125.421 180.729 125.421Z" fill="#43454E"/>
<path d="M166.192 70.8033C165.855 70.8033 165.572 70.5196 165.572 70.1828V46.3217C165.572 32.0689 162.221 17.7983 155.91 5.03458C154.723 2.65911 152.436 1.24092 149.777 1.24092C147.118 1.24092 144.848 2.65911 143.661 5.03458C137.332 17.7983 133.999 32.0866 133.999 46.3217V69.8637C133.999 70.2005 133.716 70.4842 133.379 70.4842C133.042 70.4842 132.758 70.2005 132.758 69.8637V46.3217C132.758 31.8916 136.144 17.4083 142.562 4.46731C143.927 1.71956 146.692 0 149.777 0C152.861 0 155.627 1.71956 157.009 4.48503C163.427 17.426 166.813 31.8916 166.813 46.3394V70.2005C166.813 70.5373 166.529 70.8033 166.192 70.8033Z" fill="#43454E"/>
<path d="M115.793 103.67C115.456 103.67 115.173 103.386 115.173 103.049V39.4435C115.173 39.3548 115.19 39.2485 115.244 39.1776L121.749 25.8111C121.856 25.5984 122.069 25.4565 122.299 25.4565C122.529 25.4565 122.76 25.5984 122.849 25.8111L129.355 39.1776C129.39 39.2662 129.425 39.3548 129.425 39.4435V78.7097C129.425 79.0465 129.142 79.3301 128.805 79.3301C128.468 79.3301 128.185 79.0465 128.185 78.7097V39.5853L122.299 27.4952L116.414 39.5853V103.049C116.414 103.386 116.148 103.67 115.793 103.67Z" fill="#43454E"/>
<path d="M128.787 40.0639H115.793C115.456 40.0639 115.173 39.7803 115.173 39.4435C115.173 39.1066 115.456 38.823 115.793 38.823H128.787C129.124 38.823 129.408 39.1066 129.408 39.4435C129.408 39.7803 129.142 40.0639 128.787 40.0639Z" fill="#43454E"/>
<path d="M128.787 44.9921H115.793C115.456 44.9921 115.173 44.7085 115.173 44.3717C115.173 44.0349 115.456 43.7512 115.793 43.7512H128.787C129.124 43.7512 129.408 44.0349 129.408 44.3717C129.408 44.7085 129.142 44.9921 128.787 44.9921Z" fill="#43454E"/>
<path d="M183.725 103.67C183.388 103.67 183.104 103.386 183.104 103.049V39.5853L177.219 27.4952L171.333 39.5853V78.7097C171.333 79.0465 171.049 79.3301 170.713 79.3301C170.376 79.3301 170.092 79.0465 170.092 78.7097V39.4435C170.092 39.3548 170.11 39.2485 170.163 39.1776L176.669 25.8111C176.775 25.5984 176.988 25.4565 177.219 25.4565C177.449 25.4565 177.679 25.5984 177.768 25.8111L184.274 39.1776C184.31 39.2662 184.345 39.3548 184.345 39.4435V103.049C184.345 103.386 184.061 103.67 183.725 103.67Z" fill="#43454E"/>
<path d="M183.725 40.0639H170.73C170.394 40.0639 170.11 39.7803 170.11 39.4435C170.11 39.1066 170.394 38.823 170.73 38.823H183.725C184.061 38.823 184.345 39.1066 184.345 39.4435C184.345 39.7803 184.061 40.0639 183.725 40.0639Z" fill="#43454E"/>
<path d="M183.725 44.9921H170.73C170.394 44.9921 170.11 44.7085 170.11 44.3717C170.11 44.0349 170.394 43.7512 170.73 43.7512H183.725C184.061 43.7512 184.345 44.0349 184.345 44.3717C184.345 44.7085 184.061 44.9921 183.725 44.9921Z" fill="#43454E"/>
<path d="M136.144 119.749H146.019C146.355 119.749 146.639 119.465 146.639 119.128C146.639 118.791 146.355 118.508 146.019 118.508H136.765H136.144C135.802 118.508 135.524 118.785 135.524 119.128C135.524 119.465 135.808 119.749 136.144 119.749Z" fill="#A0D1F1"/>
<path d="M153.665 119.749H163.54C163.876 119.749 164.16 119.465 164.16 119.128C164.16 118.791 163.876 118.508 163.54 118.508H154.286H153.665C153.323 118.508 153.045 118.785 153.045 119.128C153.045 119.465 153.329 119.749 153.665 119.749Z" fill="#A0D1F1"/>
<path d="M136.144 118.324H146.019C146.355 118.324 146.639 118.041 146.639 117.704C146.639 117.367 146.355 117.083 146.019 117.083H136.765H136.144C135.802 117.083 135.524 117.361 135.524 117.704C135.524 118.041 135.808 118.324 136.144 118.324Z" fill="#CDD6DF"/>
<path d="M153.665 118.324H163.54C163.876 118.324 164.16 118.041 164.16 117.704C164.16 117.367 163.876 117.083 163.54 117.083H154.286H153.665C153.323 117.083 153.045 117.361 153.045 117.704C153.045 118.041 153.329 118.324 153.665 118.324Z" fill="#CDD6DF"/>
<path d="M136.144 116.823H146.019C146.355 116.823 146.639 116.54 146.639 116.203C146.639 115.866 146.355 115.582 146.019 115.582H136.765H136.144C135.802 115.582 135.524 115.86 135.524 116.203C135.524 116.54 135.808 116.823 136.144 116.823Z" fill="#A0D1F1"/>
<path d="M153.665 116.823H163.54C163.876 116.823 164.16 116.54 164.16 116.203C164.16 115.866 163.876 115.582 163.54 115.582H154.286H153.665C153.323 115.582 153.045 115.86 153.045 116.203C153.045 116.54 153.329 116.823 153.665 116.823Z" fill="#A0D1F1"/>
<path d="M125.171 136.395C124.834 136.395 124.55 136.111 124.55 135.774V129.392C124.55 129.055 124.834 128.772 125.171 128.772C125.508 128.772 125.791 129.055 125.791 129.392V135.774C125.791 136.111 125.508 136.395 125.171 136.395Z" fill="#43454E"/>
<path d="M120.899 136.395C120.845 136.395 120.774 136.377 120.704 136.359C120.384 136.253 120.189 135.916 120.296 135.579L122.299 129.197C122.405 128.878 122.742 128.683 123.079 128.79C123.398 128.896 123.593 129.233 123.487 129.57L121.484 135.951C121.413 136.217 121.164 136.395 120.899 136.395Z" fill="#43454E"/>
<path d="M129.301 136.395C129.035 136.395 128.787 136.217 128.716 135.969L126.713 129.587C126.607 129.268 126.784 128.914 127.121 128.807C127.44 128.701 127.795 128.878 127.901 129.215L129.904 135.597C130.01 135.916 129.833 136.271 129.496 136.377C129.425 136.377 129.372 136.395 129.301 136.395Z" fill="#43454E"/>
<path d="M174.435 136.395C174.099 136.395 173.815 136.111 173.815 135.774V129.392C173.815 129.055 174.099 128.772 174.435 128.772C174.772 128.772 175.056 129.055 175.056 129.392V135.774C175.056 136.111 174.79 136.395 174.435 136.395Z" fill="#43454E"/>
<path d="M170.181 136.395C170.128 136.395 170.057 136.377 169.986 136.359C169.667 136.253 169.472 135.916 169.578 135.579L171.581 129.197C171.688 128.878 172.024 128.683 172.361 128.79C172.68 128.896 172.875 129.233 172.769 129.57L170.766 135.951C170.677 136.217 170.429 136.395 170.181 136.395Z" fill="#43454E"/>
<path d="M178.584 136.395C178.318 136.395 178.07 136.217 177.999 135.969L175.978 129.587C175.871 129.268 176.049 128.914 176.385 128.807C176.705 128.701 177.059 128.878 177.165 129.215L179.169 135.597C179.275 135.916 179.098 136.271 178.761 136.377C178.708 136.377 178.637 136.395 178.584 136.395Z" fill="#43454E"/>
<path d="M122.297 147.457C122.492 147.457 122.705 147.563 122.812 147.74L123.68 149.088L124.744 147.705C124.868 147.545 125.045 147.457 125.258 147.457C125.453 147.457 125.648 147.563 125.754 147.74L126.623 149.07L127.58 147.723C127.775 147.439 128.165 147.386 128.449 147.581C128.732 147.776 128.786 148.166 128.591 148.449L127.102 150.523C126.977 150.683 126.8 150.789 126.587 150.789C126.375 150.789 126.197 150.683 126.073 150.506L125.187 149.158L124.106 150.541C123.982 150.701 123.787 150.789 123.592 150.789C123.397 150.789 123.202 150.683 123.095 150.506L121.748 148.432C121.571 148.148 121.642 147.758 121.925 147.581C122.049 147.492 122.173 147.457 122.297 147.457Z" fill="#A0D1F1"/>
<path d="M97.0916 178.121C97.1979 178.192 97.322 178.227 97.4461 178.227C97.9425 178.227 99.7675 177.93 100.246 178.036C100.423 178.072 100.601 178.054 100.743 177.93C100.884 177.806 100.973 177.646 100.991 177.469C101.363 171.903 106.025 167.542 111.609 167.542C112.921 167.542 114.215 167.79 115.456 168.269C115.616 168.339 115.793 168.322 115.953 168.251C116.094 168.18 116.219 168.038 116.272 167.879L120.58 154.211C120.686 153.874 120.491 153.537 120.172 153.431C119.835 153.324 119.498 153.519 119.392 153.838L115.279 166.886C114.091 166.496 112.85 166.301 111.592 166.301C105.6 166.301 100.548 170.821 99.803 176.707C99.4662 176.654 99.1116 176.636 98.7748 176.636C98 176.707 97.3461 176.707 96.9999 177C96.8049 177.284 96.8079 177.926 97.0916 178.121Z" fill="#27323D"/>
<path d="M147.614 181.227C147.277 181.227 146.993 180.944 146.993 180.607C146.993 176.069 143.288 172.364 138.75 172.364C137.917 172.364 137.084 172.488 136.286 172.736C135.967 172.842 135.612 172.665 135.506 172.328L129.762 154.228C129.656 153.909 129.833 153.555 130.17 153.448C130.489 153.342 130.844 153.519 130.95 153.856L136.516 171.406C137.243 171.229 137.988 171.14 138.75 171.14C143.98 171.14 148.234 175.395 148.234 180.625C148.234 180.961 147.951 181.227 147.614 181.227Z" fill="#43454E"/>
<path d="M128.362 145.471C128.025 145.471 127.741 145.187 127.741 144.851V141.004H122.583V144.851C122.583 145.187 122.299 145.471 121.962 145.471C121.625 145.471 121.342 145.187 121.342 144.851V140.383C121.342 140.047 121.625 139.763 121.962 139.763H128.362C128.699 139.763 128.982 140.047 128.982 140.383V144.851C128.982 145.187 128.716 145.471 128.362 145.471Z" fill="#43454E"/>
<path d="M125.171 169.917C124.905 169.917 124.675 169.758 124.586 169.509C124.338 168.854 118.505 153.36 118.505 149.938C118.505 146.269 121.484 143.291 125.153 143.291C128.823 143.291 131.801 146.269 131.801 149.938C131.801 153.342 125.969 168.836 125.72 169.509C125.65 169.758 125.419 169.917 125.171 169.917ZM125.171 144.549C122.193 144.549 119.764 146.978 119.764 149.956C119.764 152.332 123.256 162.312 125.171 167.524C127.316 161.709 130.578 152.278 130.578 149.956C130.578 146.978 128.149 144.549 125.171 144.549Z" fill="#43454E"/>
<path d="M125.171 159.245C124.905 159.245 124.675 159.086 124.586 158.838C124.231 157.88 121.041 149.389 121.041 147.403C121.041 145.134 122.884 143.291 125.153 143.291C127.422 143.291 129.266 145.134 129.266 147.403C129.266 149.389 126.093 157.88 125.721 158.838C125.65 159.086 125.419 159.245 125.171 159.245ZM125.171 144.549C123.593 144.549 122.299 145.843 122.299 147.421C122.299 148.573 123.859 153.236 125.171 156.852C126.483 153.236 128.043 148.591 128.043 147.421C128.043 145.843 126.749 144.549 125.171 144.549Z" fill="#43454E"/>
<path d="M207.213 181.227C207.018 181.227 206.823 181.139 206.699 180.961C205.388 179.047 203.207 177.895 200.885 177.895C200.406 177.895 199.91 177.948 199.431 178.036C199.254 178.072 199.077 178.036 198.935 177.93C198.793 177.824 198.704 177.664 198.687 177.469C198.314 171.903 193.652 167.542 188.068 167.542C186.738 167.542 185.444 167.79 184.221 168.269C184.062 168.322 183.884 168.322 183.725 168.251C183.565 168.18 183.459 168.038 183.406 167.879L179.08 154.228C178.974 153.909 179.151 153.555 179.488 153.448C179.807 153.342 180.161 153.519 180.268 153.856L184.381 166.904C185.568 166.514 186.809 166.319 188.068 166.319C194.077 166.319 199.13 170.839 199.857 176.725C200.193 176.689 200.53 176.654 200.885 176.654C203.615 176.654 206.185 178.001 207.728 180.27C207.923 180.554 207.852 180.944 207.568 181.139C207.462 181.21 207.338 181.227 207.213 181.227Z" fill="#43454E"/>
<path d="M152.046 181.227C151.709 181.227 151.425 180.944 151.425 180.607C151.425 175.377 155.68 171.123 160.909 171.123C161.672 171.123 162.416 171.211 163.143 171.389L168.71 153.838C168.816 153.519 169.153 153.324 169.49 153.431C169.809 153.537 170.004 153.892 169.897 154.211L164.154 172.328C164.047 172.647 163.71 172.842 163.374 172.736C162.576 172.488 161.76 172.364 160.909 172.364C156.371 172.364 152.666 176.069 152.666 180.607C152.666 180.961 152.383 181.227 152.046 181.227Z" fill="#43454E"/>
<path d="M171.633 147.457C171.828 147.457 172.041 147.563 172.147 147.74L173.016 149.088L174.079 147.705C174.203 147.545 174.381 147.457 174.593 147.457C174.788 147.457 174.983 147.563 175.09 147.74L175.958 149.07L176.916 147.723C177.111 147.439 177.501 147.386 177.784 147.581C178.068 147.776 178.121 148.166 177.926 148.449L176.437 150.523C176.313 150.683 176.136 150.789 175.923 150.789C175.71 150.789 175.533 150.683 175.409 150.506L174.522 149.158L173.441 150.541C173.317 150.701 173.122 150.789 172.927 150.789C172.732 150.789 172.537 150.683 172.431 150.506L171.083 148.432C170.906 148.148 170.977 147.758 171.261 147.581C171.402 147.492 171.527 147.457 171.633 147.457Z" fill="#A0D1F1"/>
<path d="M177.68 145.471C177.343 145.471 177.059 145.188 177.059 144.851V141.004H171.9V144.851C171.9 145.188 171.617 145.471 171.28 145.471C170.943 145.471 170.66 145.188 170.66 144.851V140.383C170.66 140.047 170.943 139.763 171.28 139.763H177.68C178.016 139.763 178.3 140.047 178.3 140.383V144.851C178.3 145.188 178.034 145.471 177.68 145.471Z" fill="#43454E"/>
<path d="M174.489 169.917C174.223 169.917 173.992 169.758 173.904 169.509C173.655 168.854 167.823 153.36 167.823 149.938C167.823 146.269 170.801 143.291 174.471 143.291C178.14 143.291 181.119 146.269 181.119 149.938C181.119 153.342 175.286 168.836 175.038 169.509C174.985 169.758 174.737 169.917 174.489 169.917ZM174.489 144.549C171.51 144.549 169.082 146.978 169.082 149.956C169.082 152.332 172.574 162.312 174.489 167.524C176.634 161.709 179.895 152.278 179.895 149.956C179.895 146.978 177.467 144.549 174.489 144.549Z" fill="#43454E"/>
<path d="M174.489 159.245C174.223 159.245 173.992 159.086 173.904 158.838C173.549 157.88 170.358 149.389 170.358 147.403C170.358 145.134 172.202 143.291 174.471 143.291C176.74 143.291 178.584 145.134 178.584 147.403C178.584 149.389 175.41 157.88 175.038 158.838C174.985 159.086 174.737 159.245 174.489 159.245ZM174.489 144.549C172.911 144.549 171.617 145.843 171.617 147.421C171.617 148.573 173.177 153.236 174.489 156.852C175.8 153.236 177.36 148.591 177.36 147.421C177.36 145.843 176.066 144.549 174.489 144.549Z" fill="#43454E"/>
<path d="M118.594 178.675C118.257 178.675 117.974 178.391 117.974 178.054C117.974 174.349 114.96 171.353 111.273 171.353C107.585 171.353 104.572 174.367 104.572 178.054C104.572 178.391 104.288 178.675 103.951 178.675C103.614 178.675 103.331 178.391 103.331 178.054C103.331 173.675 106.894 170.112 111.273 170.112C115.651 170.112 119.215 173.675 119.215 178.054C119.215 178.409 118.931 178.675 118.594 178.675Z" fill="#CDD6DF"/>
<path d="M142.136 178.249C141.959 178.249 141.799 178.178 141.675 178.036C140.399 176.6 138.573 175.767 136.641 175.767C134.744 175.767 132.936 176.565 131.677 177.965C131.447 178.214 131.057 178.231 130.808 178.001C130.56 177.77 130.542 177.38 130.773 177.132C132.28 175.466 134.425 174.526 136.658 174.526C138.945 174.526 141.108 175.501 142.615 177.221C142.845 177.469 142.81 177.877 142.562 178.09C142.42 178.196 142.278 178.249 142.136 178.249Z" fill="#CDD6DF"/>
<path d="M124.675 175.023C124.338 175.023 124.054 174.739 124.054 174.402C124.054 171.903 122.033 169.882 119.534 169.882C117.938 169.882 116.431 170.75 115.634 172.133C115.456 172.435 115.084 172.523 114.783 172.364C114.481 172.186 114.393 171.814 114.552 171.513C115.58 169.74 117.495 168.659 119.534 168.659C122.707 168.659 125.295 171.247 125.295 174.42C125.295 174.739 125.011 175.023 124.675 175.023Z" fill="#A0D1F1"/>
<path d="M195.655 178.675C195.318 178.675 195.035 178.391 195.035 178.054C195.035 174.349 192.021 171.353 188.334 171.353C184.646 171.353 181.633 174.367 181.633 178.054C181.633 178.391 181.349 178.675 181.012 178.675C180.675 178.675 180.392 178.391 180.392 178.054C180.392 173.675 183.955 170.112 188.334 170.112C192.712 170.112 196.276 173.675 196.276 178.054C196.276 178.409 196.01 178.675 195.655 178.675Z" fill="#CDD6DF"/>
<path d="M157.47 178.249C157.328 178.249 157.187 178.196 157.063 178.09C156.797 177.859 156.779 177.469 157.009 177.221C158.516 175.519 160.697 174.526 162.966 174.526C165.199 174.526 167.344 175.484 168.851 177.132C169.082 177.38 169.064 177.77 168.816 178.001C168.568 178.231 168.178 178.214 167.947 177.965C166.671 176.565 164.863 175.767 162.984 175.767C161.069 175.767 159.225 176.6 157.949 178.036C157.825 178.178 157.648 178.249 157.47 178.249Z" fill="#A0D1F1"/>
<path d="M174.932 175.023C174.595 175.023 174.311 174.739 174.311 174.402C174.311 171.229 176.899 168.641 180.073 168.641C182.111 168.641 184.026 169.74 185.054 171.495C185.231 171.796 185.125 172.169 184.824 172.346C184.522 172.523 184.15 172.417 183.973 172.115C183.157 170.733 181.668 169.864 180.073 169.864C177.573 169.864 175.552 171.885 175.552 174.384C175.552 174.739 175.269 175.023 174.932 175.023Z" fill="#CDD6DF"/>
<path d="M136.286 86.1552C135.116 86.1552 134.159 85.1979 134.159 84.0279C134.159 82.8579 135.116 81.9006 136.286 81.9006C137.456 81.9006 138.413 82.8579 138.413 84.0279C138.413 85.1979 137.474 86.1552 136.286 86.1552ZM136.286 83.1416C135.79 83.1416 135.4 83.5316 135.4 84.0279C135.4 84.5243 135.79 84.9143 136.286 84.9143C136.782 84.9143 137.172 84.5243 137.172 84.0279C137.172 83.5316 136.782 83.1416 136.286 83.1416Z" fill="#43454E"/>
<path d="M163.161 86.1552C161.991 86.1552 161.033 85.1979 161.033 84.0279C161.033 82.8579 161.991 81.9006 163.161 81.9006C164.331 81.9006 165.288 82.8579 165.288 84.0279C165.288 85.1979 164.331 86.1552 163.161 86.1552ZM163.161 83.1416C162.664 83.1416 162.274 83.5316 162.274 84.0279C162.274 84.5243 162.664 84.9143 163.161 84.9143C163.657 84.9143 164.047 84.5243 164.047 84.0279C164.047 83.5316 163.657 83.1416 163.161 83.1416Z" fill="#43454E"/>
<path d="M136.286 93.0689C135.116 93.0689 134.159 92.1116 134.159 90.9416C134.159 89.7716 135.116 88.8143 136.286 88.8143C137.456 88.8143 138.413 89.7716 138.413 90.9416C138.413 92.1116 137.474 93.0689 136.286 93.0689ZM136.286 90.0552C135.79 90.0552 135.4 90.4453 135.4 90.9416C135.4 91.438 135.79 91.828 136.286 91.828C136.782 91.828 137.172 91.438 137.172 90.9416C137.172 90.4453 136.782 90.0552 136.286 90.0552Z" fill="#43454E"/>
<path d="M163.161 93.0689C161.991 93.0689 161.033 92.1116 161.033 90.9416C161.033 89.7716 161.991 88.8143 163.161 88.8143C164.331 88.8143 165.288 89.7716 165.288 90.9416C165.288 92.1116 164.331 93.0689 163.161 93.0689ZM163.161 90.0552C162.664 90.0552 162.274 90.4453 162.274 90.9416C162.274 91.438 162.664 91.828 163.161 91.828C163.657 91.828 164.047 91.438 164.047 90.9416C164.047 90.4453 163.657 90.0552 163.161 90.0552Z" fill="#43454E"/>
<path d="M136.286 99.9825C135.116 99.9825 134.159 99.0253 134.159 97.8553C134.159 96.6852 135.116 95.728 136.286 95.728C137.456 95.728 138.413 96.6852 138.413 97.8553C138.413 99.0253 137.474 99.9825 136.286 99.9825ZM136.286 96.9689C135.79 96.9689 135.4 97.3589 135.4 97.8553C135.4 98.3516 135.79 98.7416 136.286 98.7416C136.782 98.7416 137.172 98.3516 137.172 97.8553C137.172 97.3589 136.782 96.9689 136.286 96.9689Z" fill="#43454E"/>
<path d="M163.161 99.9825C161.991 99.9825 161.033 99.0253 161.033 97.8553C161.033 96.6852 161.991 95.728 163.161 95.728C164.331 95.728 165.288 96.6852 165.288 97.8553C165.288 99.0253 164.331 99.9825 163.161 99.9825ZM163.161 96.9689C162.664 96.9689 162.274 97.3589 162.274 97.8553C162.274 98.3516 162.664 98.7416 163.161 98.7416C163.657 98.7416 164.047 98.3516 164.047 97.8553C164.047 97.3589 163.657 96.9689 163.161 96.9689Z" fill="#43454E"/>
<path d="M136.286 106.896C135.116 106.896 134.159 105.939 134.159 104.769C134.159 103.599 135.116 102.642 136.286 102.642C137.456 102.642 138.413 103.599 138.413 104.769C138.413 105.939 137.474 106.896 136.286 106.896ZM136.286 103.883C135.79 103.883 135.4 104.273 135.4 104.769C135.4 105.265 135.79 105.655 136.286 105.655C136.782 105.655 137.172 105.265 137.172 104.769C137.172 104.273 136.782 103.883 136.286 103.883Z" fill="#43454E"/>
<path d="M163.161 106.896C161.991 106.896 161.033 105.939 161.033 104.769C161.033 103.599 161.991 102.642 163.161 102.642C164.331 102.642 165.288 103.599 165.288 104.769C165.288 105.939 164.331 106.896 163.161 106.896ZM163.161 103.883C162.664 103.883 162.274 104.273 162.274 104.769C162.274 105.265 162.664 105.655 163.161 105.655C163.657 105.655 164.047 105.265 164.047 104.769C164.047 104.273 163.657 103.883 163.161 103.883Z" fill="#43454E"/>
<path d="M178.206 93.0664C177.975 93.0664 177.762 92.9423 177.656 92.7295L174.554 86.9149C174.501 86.8263 174.483 86.7199 174.483 86.6313V50.5797C174.483 50.2429 174.767 49.9593 175.103 49.9593H178.206C178.542 49.9593 178.826 50.2429 178.826 50.5797V92.4282C178.826 92.7118 178.631 92.96 178.347 93.0309C178.312 93.0486 178.259 93.0664 178.206 93.0664ZM175.724 86.4718L177.585 89.9641V51.2002H175.724V86.4718Z" fill="#43454E"/>
<path d="M121.247 93.3348C121.194 93.3348 121.141 93.3348 121.088 93.3171C120.804 93.2462 120.609 92.998 120.609 92.7143V50.1154C120.609 49.7786 120.893 49.4949 121.23 49.4949H124.35C124.686 49.4949 124.97 49.7786 124.97 50.1154V86.9175C124.97 87.0238 124.952 87.1125 124.899 87.2011L121.797 93.0157C121.691 93.2107 121.478 93.3348 121.247 93.3348ZM121.868 50.7358V90.2325L123.729 86.7402V50.7358H121.868Z" fill="#43454E"/>
<path d="M22.3047 131.952C22.554 134.042 24.1928 135.42 26.1877 135.633C26.8289 135.705 27.6364 135.598 28.1708 135.182C28.6814 134.79 28.5745 134.22 28.8239 133.662C29.1208 132.997 29.9639 132.795 30.2845 132.166C30.9613 130.872 30.0351 128.508 28.6814 128.033C27.577 127.642 26.5202 128.603 25.4752 128.805C24.8577 128.924 24.5371 128.651 23.9315 128.627C22.5303 128.58 22.1859 130.978 22.3047 131.952Z" fill="#E6E6E7"/>
<path d="M21.1171 130.765C21.3664 132.855 23.0051 134.232 25.0001 134.446C25.6413 134.517 26.4488 134.41 26.9832 133.995C27.4938 133.603 27.3869 133.033 27.6363 132.475C27.9331 131.81 28.7762 131.608 29.0969 130.978C29.7737 129.684 28.8475 127.321 27.4938 126.846C26.3894 126.454 25.3326 127.416 24.2876 127.618C23.6701 127.737 23.3495 127.463 22.7439 127.44C21.3427 127.392 20.9983 129.791 21.1171 130.765Z" fill="white"/>
<path d="M25.3801 134.885C25.2377 134.885 25.107 134.873 24.9645 134.861C22.6846 134.624 20.9746 132.997 20.7134 130.824C20.6065 129.993 20.8084 128.378 21.5565 127.57C21.889 127.214 22.3165 127.024 22.7796 127.048C23.0646 127.06 23.3021 127.119 23.5039 127.167C23.7652 127.238 23.9552 127.285 24.2283 127.226C24.5489 127.167 24.8933 127.012 25.2495 126.846C25.962 126.525 26.7814 126.157 27.6482 126.466C28.3963 126.727 29.0732 127.475 29.4532 128.461C29.845 129.458 29.8569 130.468 29.4769 131.18C29.2751 131.56 28.9426 131.81 28.6457 132.023C28.3726 132.225 28.1351 132.403 28.0282 132.641C27.957 132.795 27.9213 132.961 27.8857 133.14C27.8026 133.508 27.7076 133.971 27.2445 134.327C26.7695 134.683 26.0926 134.885 25.3801 134.885ZM22.6965 127.867C22.4946 127.867 22.3165 127.95 22.1621 128.128C21.6515 128.687 21.4496 130.017 21.5327 130.717C21.7584 132.534 23.1358 133.828 25.0477 134.03C25.5583 134.09 26.2826 134.018 26.7339 133.662C26.9357 133.508 26.9832 133.318 27.0664 132.961C27.1139 132.76 27.1614 132.534 27.2564 132.308C27.4582 131.857 27.8263 131.584 28.147 131.347C28.3963 131.168 28.6219 131.002 28.7288 130.788C28.9901 130.302 28.9663 129.518 28.6694 128.758C28.3726 128.01 27.8738 127.428 27.3513 127.238C26.7932 127.036 26.1995 127.309 25.5701 127.594C25.1902 127.772 24.7864 127.95 24.3708 128.033C23.9077 128.128 23.5752 128.033 23.2783 127.962C23.1002 127.915 22.934 127.879 22.7202 127.867C22.7202 127.867 22.7083 127.867 22.6965 127.867Z" fill="#43454E"/>
<path d="M22.0315 130.824C21.7109 130.824 21.3784 130.753 21.129 130.598C20.939 130.48 20.8796 130.218 20.9984 130.028C21.1171 129.838 21.3784 129.779 21.5684 129.898C21.7584 130.017 22.2452 130.028 22.4827 129.91C22.5896 129.862 22.6846 129.755 22.7796 129.625C22.9221 129.458 23.1002 129.245 23.3852 129.114C23.5871 129.019 23.7771 128.995 23.9552 128.972C24.1689 128.948 24.2758 128.924 24.3708 128.829C24.5252 128.675 24.6321 128.437 24.6202 128.283C24.6202 128.235 24.5964 128.188 24.5252 128.14C24.3352 128.01 24.2758 127.76 24.4064 127.57C24.5371 127.38 24.7864 127.321 24.9764 127.452C25.2495 127.63 25.4158 127.891 25.4395 128.212C25.487 128.698 25.202 129.173 24.9527 129.435C24.6439 129.732 24.3114 129.779 24.0502 129.815C23.9196 129.827 23.8127 129.85 23.7177 129.886C23.6108 129.933 23.5277 130.04 23.4208 130.159C23.2783 130.325 23.1121 130.527 22.839 130.658C22.6371 130.765 22.3402 130.824 22.0315 130.824Z" fill="#43454E"/>
<path d="M28.5388 131.726C28.3251 131.726 28.0995 131.667 27.8976 131.537C27.4583 131.263 27.1495 130.729 27.0901 130.183C27.0426 129.66 27.1376 129.292 27.3989 129.043C27.8026 128.651 28.4201 128.722 29.0138 128.782L29.1207 128.793C29.3463 128.817 29.5126 129.019 29.4888 129.257C29.4651 129.482 29.2632 129.648 29.0257 129.625L28.9188 129.613C28.5745 129.577 28.1114 129.518 27.9926 129.637C27.9689 129.66 27.8976 129.755 27.9332 130.112C27.957 130.397 28.1351 130.705 28.3607 130.848C28.5151 130.943 28.622 130.907 28.6576 130.895C28.8713 130.812 29.1088 130.931 29.192 131.145C29.2751 131.358 29.1563 131.596 28.9426 131.679C28.7882 131.703 28.6695 131.726 28.5388 131.726Z" fill="#43454E"/>
<path d="M24.8339 133.211C24.2758 133.211 23.7533 132.878 23.5276 132.38C23.3614 131.976 23.397 131.548 23.6464 131.156C23.8958 130.776 24.2995 130.491 24.7389 130.396C24.7864 130.361 24.8457 130.337 24.9051 130.313C25.3089 130.218 25.7007 130.337 25.9857 130.646C26.3301 131.038 26.4488 131.655 26.2707 132.154C26.0688 132.712 25.5582 133.128 25.0001 133.187C24.9407 133.199 24.8932 133.211 24.8339 133.211ZM25.2376 131.121C25.1782 131.168 25.107 131.192 25.0239 131.192C24.7745 131.204 24.5014 131.37 24.3589 131.596C24.2639 131.75 24.2401 131.905 24.2995 132.047C24.3945 132.261 24.6557 132.403 24.9051 132.38C25.1545 132.344 25.4039 132.142 25.487 131.893C25.5582 131.691 25.4988 131.37 25.3564 131.216C25.3207 131.156 25.2851 131.133 25.2376 131.121Z" fill="#43454E"/>
<path d="M13.1968 114.674C13.3155 114.674 13.4343 114.627 13.5174 114.52C13.6599 114.342 13.6361 114.081 13.458 113.938L12.413 113.095C12.2349 112.953 11.9737 112.976 11.8312 113.154C11.6768 113.333 11.7124 113.594 11.8905 113.736L12.9355 114.579C13.0068 114.651 13.1018 114.674 13.1968 114.674Z" fill="#E6E6E7"/>
<path d="M28.3251 126.941C28.4439 126.941 28.5626 126.893 28.6458 126.787C28.7883 126.609 28.7645 126.347 28.5864 126.205L14.4317 114.734C14.2536 114.591 13.9924 114.615 13.8499 114.793C13.7074 114.971 13.7311 115.233 13.9093 115.375L28.0639 126.846C28.147 126.905 28.242 126.941 28.3251 126.941Z" fill="#E6E6E7"/>
<path d="M13.3036 124.899C13.4224 124.899 13.5293 124.851 13.6124 124.756C13.7668 124.578 13.743 124.317 13.5768 124.174L12.0449 122.832C11.8668 122.678 11.6056 122.702 11.4631 122.868C11.3087 123.046 11.3324 123.307 11.4987 123.45L13.0305 124.78C13.1018 124.863 13.2086 124.899 13.3036 124.899Z" fill="#E6E6E7"/>
<path d="M22.9934 133.33C23.1121 133.33 23.2309 133.282 23.3021 133.187C23.4565 133.009 23.4327 132.748 23.2665 132.605L14.8355 125.267C14.6573 125.112 14.3961 125.136 14.2536 125.302C14.0992 125.48 14.123 125.742 14.2892 125.884L22.7203 133.223C22.8034 133.294 22.8984 133.33 22.9934 133.33Z" fill="#E6E6E7"/>
<path d="M17.2104 120.362C17.3292 120.362 17.4479 120.315 17.5311 120.208C17.6736 120.03 17.6498 119.769 17.4717 119.626L16.0111 118.439C15.833 118.296 15.5717 118.32 15.4292 118.498C15.2867 118.676 15.3105 118.937 15.4886 119.08L16.9492 120.267C17.0323 120.339 17.1154 120.362 17.2104 120.362Z" fill="#E6E6E7"/>
<path d="M19.336 122.084C19.4547 122.084 19.5734 122.037 19.6566 121.93C19.7991 121.752 19.7753 121.491 19.5972 121.348L18.6828 120.612C18.5047 120.469 18.2435 120.493 18.101 120.671C17.9585 120.849 17.9822 121.111 18.1604 121.253L19.0747 121.989C19.146 122.061 19.241 122.084 19.336 122.084Z" fill="#E6E6E7"/>
<path d="M18.196 125.255C18.3148 125.255 18.4335 125.207 18.5167 125.1C18.6591 124.922 18.6354 124.661 18.4573 124.519L16.9967 123.331C16.8186 123.189 16.5573 123.212 16.4148 123.39C16.2723 123.569 16.2961 123.83 16.4742 123.972L17.9348 125.16C18.0179 125.219 18.101 125.255 18.196 125.255Z" fill="#E6E6E7"/>
<path d="M20.3215 126.965C20.4403 126.965 20.559 126.917 20.6422 126.81C20.7847 126.632 20.7609 126.371 20.5828 126.229L19.6684 125.492C19.4903 125.35 19.2291 125.374 19.0866 125.552C18.9441 125.73 18.9678 125.991 19.146 126.134L20.0603 126.87C20.1316 126.941 20.2266 126.965 20.3215 126.965Z" fill="#E6E6E7"/>
<path d="M25.1902 126.834C25.3089 126.834 25.4277 126.787 25.5108 126.68C25.6533 126.502 25.6296 126.24 25.4514 126.098L20.6066 122.167C20.4284 122.025 20.1672 122.049 20.0247 122.227C19.8822 122.405 19.9059 122.666 20.0841 122.809L24.9289 126.739C25.0002 126.798 25.0952 126.834 25.1902 126.834Z" fill="#E6E6E7"/>
<path d="M12.8404 115.268C12.7454 115.268 12.6504 115.233 12.5791 115.173L11.5342 114.33C11.3561 114.188 11.3204 113.926 11.4629 113.748C11.6054 113.57 11.8667 113.546 12.0448 113.689L13.0898 114.532C13.2679 114.674 13.2916 114.936 13.1491 115.114C13.0779 115.221 12.9591 115.268 12.8404 115.268Z" fill="#43454E"/>
<path d="M27.9689 127.535C27.874 127.535 27.779 127.499 27.7077 127.44L13.5531 115.969C13.3749 115.826 13.3512 115.565 13.4937 115.387C13.6362 115.209 13.8974 115.185 14.0755 115.327L28.2302 126.798C28.4083 126.941 28.4321 127.202 28.2896 127.38C28.2183 127.475 28.0877 127.535 27.9689 127.535Z" fill="#43454E"/>
<path d="M12.9474 125.492C12.8524 125.492 12.7574 125.457 12.6742 125.385L11.1424 124.055C10.9643 123.901 10.9524 123.64 11.1068 123.474C11.2611 123.295 11.5224 123.284 11.6886 123.438L13.2205 124.756C13.3986 124.91 13.4105 125.172 13.2561 125.338C13.173 125.445 13.0542 125.492 12.9474 125.492Z" fill="#43454E"/>
<path d="M22.6371 133.923C22.5421 133.923 22.4471 133.888 22.364 133.816L13.9329 126.478C13.7548 126.323 13.7429 126.062 13.8973 125.896C14.0517 125.718 14.3129 125.706 14.4792 125.86L22.9102 133.199C23.0883 133.353 23.1002 133.615 22.9458 133.781C22.8746 133.876 22.7558 133.923 22.6371 133.923Z" fill="#43454E"/>
<path d="M16.8541 120.956C16.7591 120.956 16.6641 120.921 16.5929 120.861L15.1323 119.674C14.9542 119.531 14.9304 119.27 15.0729 119.092C15.2154 118.914 15.4766 118.89 15.6548 119.032L17.1154 120.22C17.2935 120.362 17.3172 120.624 17.1747 120.802C17.1035 120.909 16.9729 120.956 16.8541 120.956Z" fill="#43454E"/>
<path d="M18.9798 122.678C18.8848 122.678 18.7898 122.642 18.7185 122.583L17.8042 121.847C17.626 121.704 17.6023 121.443 17.7448 121.265C17.8873 121.087 18.1485 121.063 18.3266 121.205L19.241 121.942C19.4191 122.084 19.4429 122.345 19.3004 122.524C19.2172 122.63 19.0985 122.678 18.9798 122.678Z" fill="#43454E"/>
<path d="M17.8397 125.848C17.7447 125.848 17.6497 125.813 17.5785 125.753L16.1179 124.566C15.9398 124.424 15.916 124.162 16.0585 123.984C16.201 123.806 16.4622 123.782 16.6404 123.925L18.101 125.112C18.2791 125.255 18.3028 125.516 18.1603 125.694C18.0772 125.789 17.9585 125.848 17.8397 125.848Z" fill="#43454E"/>
<path d="M19.9653 127.558C19.8704 127.558 19.7754 127.523 19.7041 127.463L18.7898 126.727C18.6116 126.585 18.5879 126.323 18.7304 126.145C18.8729 125.967 19.1341 125.943 19.3122 126.086L20.2266 126.822C20.4047 126.965 20.4285 127.226 20.286 127.404C20.2028 127.511 20.0841 127.558 19.9653 127.558Z" fill="#43454E"/>
<path d="M24.834 127.428C24.739 127.428 24.644 127.392 24.5727 127.333L19.7279 123.402C19.5497 123.26 19.526 122.999 19.6685 122.82C19.811 122.642 20.0722 122.619 20.2504 122.761L25.0952 126.692C25.2733 126.834 25.2971 127.095 25.1546 127.273C25.0715 127.368 24.9527 127.428 24.834 127.428Z" fill="#43454E"/>
<path d="M228.163 213.619C226.619 213.619 225.003 213.522 223.291 213.329C214.752 212.34 206.43 209.301 199.242 204.573C197.77 203.608 196.347 202.571 194.948 201.558C193.019 200.159 191.016 198.688 188.942 197.457C176.93 190.342 162.047 190.366 147.791 190.993L146.489 191.041C132.499 191.668 118.05 192.32 105.314 186.434C103.095 185.397 99.8869 183.708 97.8366 180.838C95.7863 177.895 95.4003 174.108 96.9441 171.431C97.1853 171.021 97.6919 170.876 98.1019 171.117C98.512 171.358 98.6567 171.865 98.4155 172.275C97.0165 174.735 97.8366 177.847 99.2597 179.849C100.635 181.779 102.806 183.395 106.062 184.89C118.412 190.607 132.667 189.98 146.441 189.353L147.743 189.305C162.24 188.653 177.412 188.653 189.81 196.01C191.957 197.289 193.983 198.76 195.937 200.183C197.312 201.172 198.735 202.209 200.158 203.174C207.129 207.757 215.186 210.7 223.484 211.665C229.369 212.34 234.097 211.81 237.932 210.025C242.901 207.709 245.82 203.994 245.989 199.821C246.013 199.363 246.399 199.001 246.857 199.001C247.315 199.025 247.677 199.411 247.677 199.87C247.484 204.694 244.204 208.963 238.656 211.544C235.641 212.943 232.191 213.619 228.163 213.619Z" fill="#43454E"/>
<defs>
<clipPath id="clip0">
<rect y="129" width="271.9" height="90.8118" fill="white"/>
</clipPath>
</defs>
</svg>
